<svg width="194" height="194" viewBox="0 0 194 194" fill="none" xmlns="http://www.w3.org/2000/svg">
<path d="M107.213 193.803C107.055 193.763 106.897 193.724 106.739 193.724C105.754 193.645 104.768 193.606 103.743 193.527C103.072 193.487 102.402 193.448 101.692 193.409C100.825 193.369 99.9967 193.29 99.1293 193.172C98.5772 193.093 98.0252 193.054 97.4732 192.975C96.724 192.896 95.9748 192.778 95.2256 192.659C94.0033 192.462 92.8203 192.265 91.6374 192.028C88.7589 191.476 85.8805 190.806 83.0415 189.978C77.876 188.48 72.9077 186.587 68.1366 184.142C54.8484 177.321 44.5175 167.424 37.1045 154.49C33.9106 148.891 31.3476 143.016 29.4549 136.865C28.6663 134.262 27.9959 131.62 27.5228 128.9C27.2862 127.598 27.1285 126.297 26.9313 124.957C26.813 123.971 26.6947 122.985 26.6159 121.999C26.537 121.329 26.4976 120.659 26.4976 119.949C26.4581 118.648 26.4581 117.307 26.4976 116.006C26.4976 114.862 26.6159 113.679 26.7341 112.536C26.8524 111.747 26.9313 110.959 27.0102 110.17C27.1679 108.869 27.4045 107.568 27.6805 106.306C28.9817 100.312 31.3476 94.7525 34.7386 89.6265C36.9073 86.3537 39.4309 83.3964 42.3093 80.7545C42.9797 80.1236 43.7289 79.5321 44.4386 78.9407C44.5569 78.8224 44.7146 78.7435 44.8724 78.7041C45.0695 78.6252 45.2272 78.6647 45.3455 78.8618C45.4244 79.0195 45.5032 79.1773 45.5427 79.3744C45.661 79.6899 45.7398 80.0448 45.8187 80.3602C47.7508 87.3789 50.1167 94.2399 53.1528 100.864C55.7553 106.542 58.752 111.984 62.3008 117.11C66.2833 122.946 70.8573 128.229 76.1016 132.961C84.0667 140.137 93.0963 145.5 103.23 149.009C106.266 150.074 109.381 150.941 112.536 151.651C113.798 151.927 115.099 152.203 116.4 152.44C116.873 152.519 117.346 152.558 117.78 152.637C118.884 152.874 119.988 152.913 121.092 153.11C122.039 153.268 122.985 153.268 123.931 153.386C124.207 153.426 124.483 153.465 124.72 153.465C127.677 153.702 130.635 153.741 133.631 153.702C134.578 153.702 135.524 153.662 136.47 153.623C137.101 153.583 137.732 153.544 138.363 153.465C139.23 153.386 140.059 153.347 140.926 153.268C141.636 153.189 142.385 153.11 143.095 153.031C143.883 152.952 144.672 152.834 145.461 152.716C146.565 152.558 147.669 152.4 148.773 152.203C151.493 151.77 154.175 151.139 156.856 150.468C159.656 149.798 162.416 148.97 165.137 148.063C167.345 147.314 169.553 146.565 171.722 145.658C172.628 145.263 173.535 144.909 174.442 144.514C174.679 144.396 174.955 144.317 175.191 144.238C175.389 144.199 175.546 144.317 175.507 144.514C175.507 144.672 175.428 144.79 175.389 144.948C175.152 145.382 174.955 145.815 174.718 146.289C171.367 152.676 167.502 158.709 163.047 164.348C159.459 168.883 155.515 173.102 151.139 176.926C146.683 180.791 141.872 184.103 136.628 186.784C132.37 188.953 127.953 190.648 123.3 191.831C121.763 192.226 120.264 192.541 118.687 192.817C117.938 192.935 117.189 193.093 116.4 193.211C115.651 193.33 114.941 193.409 114.192 193.448C113.048 193.566 111.865 193.645 110.722 193.724C110.604 193.724 110.525 193.763 110.407 193.803C109.381 193.803 108.317 193.803 107.213 193.803Z" fill="white"/>
<path d="M183.866 86.2354C183.787 86.4325 183.787 86.6297 183.787 86.8268C183.748 87.3394 183.748 87.8915 183.709 88.4041C183.63 89.587 183.511 90.7305 183.354 91.9134C183.196 93.1358 182.999 94.3187 182.762 95.5411C182.328 97.6703 181.737 99.7602 181.027 101.811C179.963 104.847 178.819 107.844 177.4 110.722C175.507 114.626 173.299 118.293 170.617 121.723C167.463 125.745 163.835 129.176 159.577 132.015C155.555 134.696 151.217 136.628 146.604 137.929C144.751 138.442 142.858 138.876 140.965 139.191C139.625 139.428 138.245 139.585 136.865 139.704C134.814 139.901 132.724 139.98 130.674 139.94C129.728 139.901 128.781 139.861 127.835 139.783C126.967 139.743 126.061 139.664 125.193 139.585C124.404 139.507 123.616 139.428 122.867 139.309C121.526 139.112 120.225 138.876 118.924 138.6C117.622 138.324 116.321 138.048 115.059 137.614C114.98 137.574 114.902 137.535 114.783 137.496C114.862 137.338 114.941 137.22 114.98 137.101C115.611 135.997 116.242 134.893 116.834 133.789C122.788 123.103 127.638 111.944 131.423 100.312C133.158 94.9496 134.617 89.5476 135.839 84.0272C136.431 81.3065 136.983 78.5858 137.417 75.8256C137.693 74.0907 137.929 72.3557 138.166 70.5813C138.402 68.9646 138.56 67.348 138.718 65.7313C138.876 64.1541 138.994 62.5768 139.073 60.9996C139.112 59.935 139.152 58.9098 139.191 57.8451C139.23 56.5833 139.191 55.3215 139.073 54.0598C138.994 52.9163 138.915 51.7333 138.757 50.5898C137.456 39.6675 133.276 29.9675 126.061 21.6476C122.472 17.5073 118.411 13.9585 113.876 10.9224C107.331 6.5061 100.233 3.15447 92.6626 0.906912C92.3472 0.82805 92.0317 0.709759 91.7163 0.630897C91.6374 0.591466 91.5585 0.552037 91.4402 0.473176C91.598 0.433745 91.6768 0.394309 91.7557 0.394309C93.4907 0.236585 95.2256 0.118298 96.9606 0.0788666C97.1577 0.0788666 97.3549 0.118293 97.552 0C98.6561 0 99.7207 0 100.825 0C101.022 0.0394309 101.259 0.0788666 101.456 0.0788666C102.717 0.118298 103.94 0.157728 105.202 0.276021C106.503 0.394314 107.804 0.512606 109.105 0.67033C110.407 0.828054 111.668 1.06464 112.93 1.26179C115.178 1.6561 117.346 2.1687 119.554 2.76016C126.021 4.53455 132.172 7.05813 138.008 10.3703C151.178 17.8622 162.022 27.8382 170.617 40.2984C174.6 46.0553 177.754 52.2459 180.041 58.8703C181.619 63.4049 182.723 68.0183 183.354 72.7894C183.63 74.761 183.866 76.7325 183.906 78.7435C183.906 78.9012 183.945 79.0984 183.985 79.2561C183.866 81.5037 183.866 83.8695 183.866 86.2354Z" fill="white"/>
<path d="M10.3309 82.6077C10.3703 82.45 10.4098 82.3317 10.4492 82.174C10.4886 81.9374 10.4886 81.7403 10.4886 81.5037C10.5281 80.5573 10.5675 79.611 10.6069 78.6646C10.6858 77.7183 10.7646 76.7325 10.8435 75.7862C10.9224 74.9187 11.0012 74.0512 11.1195 73.1838C11.2772 72.0797 11.435 70.9362 11.5927 69.8321C11.987 67.5057 12.4996 65.2187 13.0911 62.9317C15.6935 53.2317 20.0703 44.4386 26.261 36.513C30.9138 30.559 36.3553 25.3935 42.4277 20.9378C47.672 17.0736 53.3106 13.8008 59.2646 11.1195C63.326 9.3057 67.5451 7.96505 71.922 7.05814C73.4203 6.74269 74.9581 6.46668 76.4565 6.26952C77.5606 6.1118 78.6646 6.03294 79.7687 5.95407C81.7402 5.83578 83.7512 5.83578 85.7228 5.91464C86.8663 5.95407 88.0098 6.07236 89.1138 6.30895C100.273 8.55651 109.657 13.9191 117.228 22.4362C120.856 26.537 123.774 31.111 126.1 36.0004C127.756 39.4703 129.097 43.098 130.043 46.8045C130.122 47.0805 130.201 47.3171 130.24 47.5931C130.28 47.7508 130.28 47.948 130.319 48.1057C130.122 48.2634 129.925 48.2634 129.728 48.2634C128.939 48.3028 128.111 48.3029 127.322 48.3423C126.297 48.3817 125.233 48.4211 124.207 48.4606C123.103 48.5394 121.999 48.6183 120.856 48.6972C120.264 48.7366 119.673 48.776 119.081 48.8155C118.096 48.8943 117.11 48.9732 116.163 49.052C115.414 49.1309 114.704 49.1703 113.955 49.2492C113.206 49.3281 112.496 49.4069 111.747 49.4858C110.88 49.6041 110.012 49.6829 109.145 49.8012C108.12 49.9195 107.094 50.0772 106.069 50.235C104.807 50.4321 103.585 50.6293 102.323 50.8264C100.943 51.063 99.6025 51.2602 98.2224 51.5362C96.724 51.8122 95.1862 52.0882 93.6878 52.4037C91.4008 52.8768 89.1138 53.4289 86.8269 53.9809C82.5683 55.0455 78.3492 56.2679 74.1695 57.648C66.3622 60.211 58.7915 63.326 51.5362 67.1508C47.5537 69.2407 43.7289 71.5277 39.9829 74.0118C36.5525 76.2988 33.5557 79.0195 30.8744 82.174C27.8777 85.7228 25.3541 89.587 23.4614 93.8061C22.0025 97.0394 20.8984 100.391 20.1492 103.861C19.7943 105.557 19.5183 107.252 19.3212 108.948C19.0451 111.313 18.8874 113.679 18.9268 116.085C18.9268 117.662 19.0057 119.2 19.1634 120.777C19.2817 122.039 19.4 123.261 19.5577 124.523C19.8732 126.889 20.3464 129.215 20.9378 131.541C21.135 132.33 21.3716 133.158 21.6081 133.947C21.5293 133.947 21.4899 133.868 21.4899 133.828C21.4504 133.75 21.411 133.71 21.411 133.631C20.8195 132.093 20.1886 130.595 19.5972 129.057C17.5468 123.695 15.7724 118.253 14.3134 112.733C13.4854 109.539 12.7362 106.306 12.1447 103.033C11.8293 101.18 11.5138 99.3659 11.2772 97.5126C11.0801 95.9748 10.9224 94.4764 10.8041 92.9386C10.6069 91.0065 10.4886 89.035 10.4492 87.0634C10.4492 86.8269 10.4098 86.5508 10.3703 86.3142C10.3703 86.1959 10.2915 86.0382 10.252 85.9199C10.3309 84.6976 10.3309 83.6724 10.3309 82.6077Z" fill="white"/>
</svg>
