<svg id="Layer_1" data-name="Layer 1" xmlns="http://www.w3.org/2000/svg" xmlns:xlink="http://www.w3.org/1999/xlink" viewBox="0 0 180 81"><defs><style>.cls-1{fill:url(#linear-gradient);}.cls-2{fill:#01244a;}.cls-3{fill:#222d35;}.cls-4{fill:#1bb8e6;}.cls-5{fill:url(#linear-gradient-2);}.cls-6{fill:url(#linear-gradient-3);}.cls-7{fill:url(#linear-gradient-4);}.cls-8{fill:url(#linear-gradient-5);}.cls-9{fill:url(#linear-gradient-6);}.cls-10{fill:url(#linear-gradient-7);}.cls-11{fill:url(#linear-gradient-8);}.cls-12{fill:url(#linear-gradient-9);}.cls-13{fill:url(#linear-gradient-10);}.cls-14{fill:url(#linear-gradient-11);}.cls-15{fill:url(#linear-gradient-12);}.cls-16{fill:url(#linear-gradient-13);}.cls-17{fill:url(#linear-gradient-14);}.cls-18{fill:url(#linear-gradient-15);}.cls-19{fill:url(#linear-gradient-16);}.cls-20{fill:url(#linear-gradient-17);}.cls-21{fill:url(#linear-gradient-18);}.cls-22{fill:url(#linear-gradient-19);}.cls-23{fill:url(#linear-gradient-20);}.cls-24{fill:url(#linear-gradient-21);}.cls-25{fill:url(#linear-gradient-22);}.cls-26{fill:url(#linear-gradient-23);}.cls-27{fill:url(#linear-gradient-24);}.cls-28{fill:url(#linear-gradient-25);}.cls-29{fill:url(#linear-gradient-26);}.cls-30{fill:url(#linear-gradient-27);}.cls-31{fill:url(#linear-gradient-28);}.cls-32{fill:url(#linear-gradient-29);}.cls-33{fill:url(#linear-gradient-30);}.cls-34{fill:url(#linear-gradient-31);}.cls-35{fill:url(#linear-gradient-32);}.cls-36{fill:url(#linear-gradient-33);}</style><linearGradient id="linear-gradient" x1="29.2" y1="42" x2="58.9" y2="12.31" gradientUnits="userSpaceOnUse"><stop offset="0.25" stop-color="#01244a"/><stop offset="0.32" stop-color="#022b51"/><stop offset="0.41" stop-color="#053d64"/><stop offset="0.53" stop-color="#0b5b84"/><stop offset="0.66" stop-color="#1284af"/><stop offset="0.79" stop-color="#1bb8e6"/></linearGradient><linearGradient id="linear-gradient-2" x1="1.5" y1="20.2" x2="39.94" y2="20.2" gradientUnits="userSpaceOnUse"><stop offset="0" stop-color="#01244a"/><stop offset="0.1" stop-color="#022b51"/><stop offset="0.24" stop-color="#053d64"/><stop offset="0.41" stop-color="#0b5b84"/><stop offset="0.6" stop-color="#1284af"/><stop offset="0.8" stop-color="#1bb8e6"/></linearGradient><linearGradient id="linear-gradient-3" x1="2.41" y1="20.03" x2="40.48" y2="20.03" xlink:href="#linear-gradient-2"/><linearGradient id="linear-gradient-4" x1="7.82" y1="21.62" x2="45.51" y2="21.62" xlink:href="#linear-gradient-2"/><linearGradient id="linear-gradient-5" x1="15.8" y1="22.89" x2="46.87" y2="22.89" xlink:href="#linear-gradient-2"/><linearGradient id="linear-gradient-6" x1="7.28" y1="21.16" x2="45.2" y2="21.16" xlink:href="#linear-gradient-2"/><linearGradient id="linear-gradient-7" x1="5.99" y1="21.19" x2="44.9" y2="21.19" xlink:href="#linear-gradient-2"/><linearGradient id="linear-gradient-8" x1="13.41" y1="21.97" x2="46.43" y2="21.97" xlink:href="#linear-gradient-2"/><linearGradient id="linear-gradient-9" x1="14.83" y1="22.36" x2="46.69" y2="22.36" xlink:href="#linear-gradient-2"/><linearGradient id="linear-gradient-10" x1="22.19" y1="14.78" x2="44.66" y2="14.78" xlink:href="#linear-gradient-2"/><linearGradient id="linear-gradient-11" x1="4.06" y1="12.51" x2="38.63" y2="12.51" xlink:href="#linear-gradient-2"/><linearGradient id="linear-gradient-12" x1="3.01" y1="14.27" x2="39.27" y2="14.27" xlink:href="#linear-gradient-2"/><linearGradient id="linear-gradient-13" x1="5.8" y1="10.71" x2="37.85" y2="10.71" xlink:href="#linear-gradient-2"/><linearGradient id="linear-gradient-14" x1="17.43" y1="12.95" x2="43.03" y2="12.95" xlink:href="#linear-gradient-2"/><linearGradient id="linear-gradient-15" x1="10.48" y1="7.82" x2="35.57" y2="7.82" xlink:href="#linear-gradient-2"/><linearGradient id="linear-gradient-16" x1="17.9" y1="11.92" x2="42.6" y2="11.92" xlink:href="#linear-gradient-2"/><linearGradient id="linear-gradient-17" x1="18.5" y1="11.16" x2="42.19" y2="11.16" xlink:href="#linear-gradient-2"/><linearGradient id="linear-gradient-18" x1="12.53" y1="7.8" x2="36.65" y2="7.8" xlink:href="#linear-gradient-2"/><linearGradient id="linear-gradient-19" x1="27.2" y1="12.58" x2="44.28" y2="12.58" xlink:href="#linear-gradient-2"/><linearGradient id="linear-gradient-20" x1="27.94" y1="11.86" x2="43.91" y2="11.86" xlink:href="#linear-gradient-2"/><linearGradient id="linear-gradient-21" x1="29.22" y1="11.25" x2="43.57" y2="11.25" xlink:href="#linear-gradient-2"/><linearGradient id="linear-gradient-22" x1="34.39" y1="16.22" x2="45.72" y2="16.22" xlink:href="#linear-gradient-2"/><linearGradient id="linear-gradient-23" x1="8.42" y1="9.22" x2="19.36" y2="9.22" xlink:href="#linear-gradient-2"/><linearGradient id="linear-gradient-24" x1="38.36" y1="16.66" x2="45.97" y2="16.66" xlink:href="#linear-gradient-2"/><linearGradient id="linear-gradient-25" x1="42.21" y1="17.23" x2="46.24" y2="17.23" xlink:href="#linear-gradient-2"/><linearGradient id="linear-gradient-26" x1="22.79" y1="3.58" x2="29.49" y2="3.58" xlink:href="#linear-gradient-2"/><linearGradient id="linear-gradient-27" x1="31.75" y1="3.93" x2="34.44" y2="3.93" xlink:href="#linear-gradient-2"/><linearGradient id="linear-gradient-28" x1="1.6" y1="23.95" x2="2.88" y2="23.95" xlink:href="#linear-gradient-2"/><linearGradient id="linear-gradient-29" x1="22.76" y1="4.01" x2="22.79" y2="4.01" xlink:href="#linear-gradient-2"/><linearGradient id="linear-gradient-30" x1="4.03" y1="19.38" x2="4.06" y2="19.38" xlink:href="#linear-gradient-2"/><linearGradient id="linear-gradient-31" x1="5.73" y1="16.43" x2="5.8" y2="16.43" xlink:href="#linear-gradient-2"/><linearGradient id="linear-gradient-32" x1="5.73" y1="16.45" x2="5.75" y2="16.45" xlink:href="#linear-gradient-2"/><linearGradient id="linear-gradient-33" x1="4.03" y1="19.43" x2="4.04" y2="19.43" xlink:href="#linear-gradient-2"/></defs><path class="cls-1" d="M67.09,33.88a.43.43,0,0,0,0,.22l0,.61c0,.45-.08.89-.14,1.34s-.14.92-.23,1.38A18,18,0,0,1,66,39.82a30.46,30.46,0,0,1-1.39,3.41A23.62,23.62,0,0,1,62,47.43a18.12,18.12,0,0,1-4.22,3.93,17.43,17.43,0,0,1-5,2.27,17.68,17.68,0,0,1-2.16.47c-.52.09-1,.15-1.56.19a20.69,20.69,0,0,1-2.36.09c-.37,0-.73,0-1.09-.05l-1-.08-.89-.11c-.51-.08-1-.16-1.51-.27a14.4,14.4,0,0,1-1.47-.38l-.11,0,.08-.16c.24-.42.48-.84.71-1.26A71.29,71.29,0,0,0,47,39.23c.66-2,1.22-4.12,1.68-6.22.23-1,.43-2.08.6-3.13.11-.67.2-1.34.3-2s.15-1.24.21-1.86.11-1.2.13-1.81c0-.4,0-.8.05-1.21a14,14,0,0,0,0-1.45c0-.44-.07-.88-.12-1.32A20.21,20.21,0,0,0,45,9.16a24,24,0,0,0-4.66-4.1,29.49,29.49,0,0,0-8.1-3.83l-.37-.11-.11-.06.12,0c.66-.05,1.32-.1,2-.11a.42.42,0,0,0,.22,0H35.3l.24,0c.48,0,1,0,1.43.07l1.5.15,1.46.23c.86.15,1.7.34,2.53.57a31.08,31.08,0,0,1,7.06,2.91A37.33,37.33,0,0,1,62,16.3a28.94,28.94,0,0,1,3.6,7.1,28.51,28.51,0,0,1,1.27,5.31,19.3,19.3,0,0,1,.2,2.28c0,.06,0,.13,0,.2Z"/><path class="cls-2" d="M3.62,48.85c0-.06,0-.12,0-.18s0-.29,0-.43,0-.45-.07-.67l-.06-1.09,0-.72c0-.55,0-1.11,0-1.67a1.93,1.93,0,0,0,0-.24c0-.33,0-.65.06-1s.09-.91.15-1.36c.1-.68.22-1.36.37-2,.11-.5.25-1,.41-1.47a19.92,19.92,0,0,1,1.16-2.88A18.38,18.38,0,0,1,6.7,33.21a19,19,0,0,1,1.52-2A23.42,23.42,0,0,1,9.9,29.4a24.28,24.28,0,0,1,2-1.67q.93-.72,1.92-1.35c1-.63,2-1.21,3-1.74q2.12-1.08,4.32-2c.94-.37,1.89-.72,2.86-1s2.18-.7,3.28-1c.75-.21,1.5-.41,2.25-.59L31,19.72l1.37-.29.79-.14,1.17-.21L35,19l.78-.12.84-.1.32,0,.59-.07.65-.06.21,0,.24,0,.28,0H39l.61,0c.41,0,.83-.06,1.24-.06l.54,0h2a0,0,0,0,0,0,0,1,1,0,0,0,0-.1,2.25,2.25,0,0,1-.13-.42A.83.83,0,0,1,43.7,17a1.32,1.32,0,0,1,.65-.15h.3s0,0,0,0l0-.09L43.5,14.56c-.59-1.1-1.17-2.22-1.78-3.31-.44-.8-.89-1.58-1.38-2.34A20.77,20.77,0,0,0,39,7.06l0,0a.57.57,0,0,0-.24-.19c-.24-.1-.48-.21-.71-.33a7.94,7.94,0,0,1-1.29-.84,4,4,0,0,1-.37-.34.53.53,0,0,0-.23-.16,17.93,17.93,0,0,0-2.38-.68c-.41-.08-.82-.16-1.24-.22l-.73-.09c-.25,0-.5,0-.74-.06H31c-.56,0-1.11,0-1.67,0-.31,0-.63,0-.94,0l-.8.06c-.2,0-.4,0-.61.06l-.43,0-.82.13-.53.09q-.77.15-1.53.33c-.67.16-1.33.34-2,.55-1,.3-1.94.65-2.88,1-.74.31-1.46.64-2.18,1a33.2,33.2,0,0,0-3.95,2.32c-.69.47-1.36,1-2,1.49a28.47,28.47,0,0,0-2.17,1.93L8,13.62s0,0,0,0L8.41,13A31.39,31.39,0,0,1,12.6,9.25a35,35,0,0,1,5.69-3.52c.81-.4,1.63-.78,2.48-1.1a23.8,23.8,0,0,1,2.76-.85c.44-.11.89-.2,1.34-.29s.59-.11.9-.15c.15,0,.3,0,.45-.06l.56-.06h0c.28,0,.55,0,.83-.06l.39,0c.52,0,1,0,1.57,0a7.11,7.11,0,0,1,.91.07,10.6,10.6,0,0,1,1.25.24,20,20,0,0,1,2.17.64,18.85,18.85,0,0,1,5.34,3A20.28,20.28,0,0,1,43,10.85a7.43,7.43,0,0,1,.49.75c.3.49.6,1,.88,1.47s.61,1.06.91,1.59a7.6,7.6,0,0,1,.37.76,23.25,23.25,0,0,1,1.26,3.66,1.34,1.34,0,0,1,0,.3.07.07,0,0,1,0,.08l-.11,0h-.06l-1.57.05-.45,0h-.24a4,4,0,0,0-.5,0h-.18l-.39,0h-.06l-.72.05-.45,0H42l-.26,0h-.06l-.7.06-.19,0-.13,0c-.25,0-.49.05-.74.08l-.54.05-.47.06-.5.07-.58.08-.71.1-.64.1-.67.11-.68.12-.58.1-.88.16-.74.15-1.11.23L30,21.73c-.94.23-1.86.49-2.79.76-1.5.44-3,.94-4.44,1.49A56.59,56.59,0,0,0,16,27c-1.36.73-2.67,1.52-3.95,2.38a15.26,15.26,0,0,0-2.56,2.12A19.12,19.12,0,0,0,6.26,36a18.61,18.61,0,0,0-1.6,4.12c-.15.59-.28,1.19-.37,1.79,0,.26-.08.52-.11.78s-.08.69-.11,1,0,.52-.05.78c0,.64,0,1.29,0,1.93,0,.32,0,.64.07,1s0,.43,0,.65l.06.5a23.7,23.7,0,0,0,.52,2.77c0,.22.08.43.11.65v0l0,0,0-.06C4.38,51,4,50.05,3.69,49.12A2.68,2.68,0,0,1,3.62,48.85Z"/><path class="cls-3" d="M7.93,13.58l0,0,0,.07c-.09.1-.19.21-.3.31l-.08.06s0-.05,0-.06.23-.28.35-.41Z"/><path class="cls-3" d="M7.54,14.06a0,0,0,0,1,0,0Z"/><path class="cls-2" d="M21.53,14.62a9,9,0,0,1-.7,3.46,9.12,9.12,0,0,1-1.26,2.15,8.7,8.7,0,0,1-3.11,2.47,8.05,8.05,0,0,1-1.87.62,4.81,4.81,0,0,1-.84.1l-.2,0h-.17a6,6,0,0,1-1.88-.29,4.18,4.18,0,0,1-1.5-.9,3.88,3.88,0,0,1-1-1.6,5.38,5.38,0,0,1-.23-1,6.29,6.29,0,0,1,0-1.3,8.21,8.21,0,0,1,.36-1.84,11.85,11.85,0,0,1,.9-2.11,12.54,12.54,0,0,1,2-2.73,9.83,9.83,0,0,1,2.33-1.77,6.42,6.42,0,0,1,1.57-.62,4.82,4.82,0,0,1,1.56-.15,4,4,0,0,1,1.72.54,4.16,4.16,0,0,1,1.31,1.23,5.64,5.64,0,0,1,.78,1.69A7.42,7.42,0,0,1,21.53,14.62Z"/><path class="cls-2" d="M135,64.8h-9.27c-.15,0-.21-.07-.22-.23s0-.17,0-.26V61.26c0-.13,0-.25,0-.37a.19.19,0,0,1,.14-.13l.21,0h17a9.93,9.93,0,0,0,1.44-.08A4.81,4.81,0,0,0,146.2,60a2.89,2.89,0,0,0,1.25-1.54,2.94,2.94,0,0,0,0-1.83,2.52,2.52,0,0,0-.88-1.25,4.47,4.47,0,0,0-1.57-.79,6,6,0,0,0-1.58-.22H131.83a8.17,8.17,0,0,1-3.11-.72,6.73,6.73,0,0,1-2.48-1.91,5.45,5.45,0,0,1-1-2.07,7,7,0,0,1,0-3.43,5.73,5.73,0,0,1,1.85-3,7.07,7.07,0,0,1,3.16-1.59,8.89,8.89,0,0,1,2-.23h17.46c.22,0,.27,0,.28.28V45a1.55,1.55,0,0,1,0,.31.12.12,0,0,1-.07.07.42.42,0,0,1-.15,0h-17a5.11,5.11,0,0,0-1,.08,3,3,0,0,0-1.31.58,2,2,0,0,0-.81,1.5,2.56,2.56,0,0,0,0,.62,2,2,0,0,0,.92,1.49,3.07,3.07,0,0,0,1.25.48,7,7,0,0,0,1,.06h11a8.51,8.51,0,0,1,2.64.45,7.53,7.53,0,0,1,3.43,2.33,6.54,6.54,0,0,1,1.47,3.42,8.74,8.74,0,0,1,.08,1.35,8,8,0,0,1-.46,2.43,6.59,6.59,0,0,1-2.23,2.93,7.8,7.8,0,0,1-3.19,1.42,10.14,10.14,0,0,1-2.06.21Z"/><path class="cls-2" d="M83.87,41.39H91a.19.19,0,0,1,.14.13s0,.07,0,.1,0,.14,0,.21c0,1,0,2.11,0,3.16a1.62,1.62,0,0,1,0,.31s-.06.08-.1.11a.37.37,0,0,1-.15,0H78.06a9.56,9.56,0,0,0-2.26.26,7.23,7.23,0,0,0-5.39,5.69,9.16,9.16,0,0,0,.06,3.76,6.93,6.93,0,0,0,3.71,4.72,7.4,7.4,0,0,0,2.73.78,14.17,14.17,0,0,0,1.6.07H90.37c.84,0,.75-.08.75.75s0,1.79,0,2.69c0,.16,0,.31,0,.47a.19.19,0,0,1-.13.14h-.31c-.4,0-.8,0-1.19,0H78.23c-.22,0-.45,0-.67,0a11.88,11.88,0,0,1-3.91-.69,10.64,10.64,0,0,1-3.77-2.31A11.31,11.31,0,0,1,67.15,58a12.42,12.42,0,0,1-.9-3.34,15.62,15.62,0,0,1-.11-2.27,12.6,12.6,0,0,1,.48-3.17,10.27,10.27,0,0,1,3.57-5.33,11,11,0,0,1,5.15-2.29,14.78,14.78,0,0,1,2.57-.22C79.9,41.4,81.88,41.39,83.87,41.39Z"/><path class="cls-2" d="M113,54c-.06-.11-.11-.22-.17-.32l-3.41-5.63c-.36-.6-.34-.63-.71,0l-9.85,16.2-.25.39a.26.26,0,0,1-.26.14H93.43s-.09-.08-.07-.12l.22-.41,1.73-2.88,10.22-17,.48-.8a5.27,5.27,0,0,1,1.72-1.7,4.83,4.83,0,0,1,.64-.33,2.13,2.13,0,0,1,1.57,0,3.49,3.49,0,0,1,.7.34,5.27,5.27,0,0,1,1.56,1.56c.13.19.24.39.35.58q5.91,10.05,11.8,20.11c.11.17.2.36.3.54a.09.09,0,0,1-.09.14H120a2.25,2.25,0,0,0-.26,0,.39.39,0,0,1-.41-.25,1.74,1.74,0,0,0-.11-.18l-1.8-3-1.59-2.67c-.08-.14-.17-.26-.26-.39a1.81,1.81,0,0,1-.76-.74c-.51-.88-1-1.76-1.58-2.61A1,1,0,0,1,113,54Z"/><path class="cls-4" d="M178.5,53.15V64.08c0,.19,0,.37,0,.56a.18.18,0,0,1-.13.15h-3.78a.21.21,0,0,1-.19-.21,1.48,1.48,0,0,1,0-.21v-8.7c0-.61,0-.59-.59-.59H161.46l-.63,0a.18.18,0,0,1-.16-.17c0-.07,0-.14,0-.21V51.43a2.11,2.11,0,0,1,0-.25c0-.07.07-.14.13-.14l.21,0h12.64l.57,0a.15.15,0,0,0,.13-.14c0-.19,0-.38,0-.57V42.11c0-.19,0-.38,0-.57a.17.17,0,0,1,.13-.14h3.78a.21.21,0,0,1,.19.21V53.15Z"/><path class="cls-4" d="M158.72,53.15V64c0,.19,0,.38,0,.57s-.08.2-.23.21h-3.42l-.31,0c-.06,0-.09,0-.11-.09a.41.41,0,0,1,0-.16c0-.17,0-.34,0-.51V42.17c0-.21,0-.41,0-.62a.17.17,0,0,1,.17-.16h3.47a1.62,1.62,0,0,1,.31,0,.19.19,0,0,1,.11.09.39.39,0,0,1,0,.15c0,.18,0,.35,0,.52Z"/><path class="cls-4" d="M113,54l.29.48.26.44c.68,1.11,1.35,2.22,2,3.33H104.8a.39.39,0,0,1-.14,0,.14.14,0,0,1-.07-.13,1.46,1.46,0,0,1,.07-.19l.29-.49,1.67-2.74.2-.3a.53.53,0,0,1,.4-.21h5.44A.67.67,0,0,0,113,54Z"/><path class="cls-5" d="M15.78,17l-.06-.09-1.2-1.78-.94-1.38s0,0,0,0,0-.08,0-.11l.06,0c.63-.39,1.27-.77,1.93-1.12A33.31,33.31,0,0,1,18.64,11c1-.39,1.93-.76,2.92-1.07.76-.24,1.52-.47,2.29-.66.52-.14,1-.26,1.56-.37s.95-.21,1.42-.29l.83-.16.64-.1.78-.11c.15,0,.3,0,.45-.06L30,8.1,30.54,8l.6-.07h.15l.26,0,.19,0,.26,0,.18,0,.34,0,.2,0,.3,0h.06l.85-.06h0l1-.06H35l1.34,0,.74,0h.32l2.24,0h.17a.16.16,0,0,1,.11.07,0,0,0,0,1,0,0h-.16l-1.87,0-.8,0h-.41c-.28,0-.55,0-.83,0h-.28l-.61,0h-.26l-.43,0h-.21l-.39,0-.18,0-.41,0h-.21L32.6,8h-.2l-.3,0H32l-.88.09c-.31,0-.62.06-.93.1s-.76.09-1.13.16l-.71.1c-.46.07-.92.14-1.37.24l-.72.14L25,9.13c-.67.15-1.34.33-2,.51-1,.29-2,.6-2.94,1s-1.67.64-2.49,1c-.45.21-.89.42-1.32.64-.74.38-1.46.78-2.17,1.2l-.23.15a.06.06,0,0,0,0,.08l0,.07c.3.44.59.88.89,1.31.42.62.83,1.24,1.25,1.85l0,.08A.11.11,0,0,1,16,17l-.08.05q-1.76,1-3.42,2.13c-.62.44-1.23.89-1.82,1.37l-1,.79c-.49.42-1,.84-1.42,1.28-.89.83-1.72,1.72-2.53,2.63a.73.73,0,0,0-.25.48c-.1.42-.2.83-.29,1.25s-.14.62-.2.93a.38.38,0,0,1-.09.19L4.3,29,4,29.29c-.6.8-1.19,1.6-1.74,2.44l-.36.56a.48.48,0,0,0-.07.2.4.4,0,0,1-.18.33.11.11,0,0,1-.08,0,.09.09,0,0,1-.1-.06.2.2,0,0,1,0-.17.43.43,0,0,1,.2-.24.24.24,0,0,0,.13-.11L2,32a37,37,0,0,1,2.37-3.32c.14-.19.29-.37.44-.56a.41.41,0,0,0,.13-.27c.13-.61.26-1.22.41-1.84,0-.14.07-.28.1-.42a.53.53,0,0,1,.13-.26l.86-1a34.87,34.87,0,0,1,2.81-2.76c.86-.76,1.75-1.47,2.67-2.15a41.88,41.88,0,0,1,3.68-2.37l.13-.08S15.76,17,15.78,17Z"/><path class="cls-6" d="M2.8,31.59a.41.41,0,0,1-.08.32.36.36,0,0,1-.13.11H2.51a.1.1,0,0,1-.1-.07.4.4,0,0,1,0-.19.36.36,0,0,1,.23-.22.24.24,0,0,0,.13-.11,1.33,1.33,0,0,1,.14-.19c.55-.79,1.13-1.56,1.75-2.3.21-.25.42-.51.64-.76a.64.64,0,0,0,.12-.25c0-.22.09-.44.14-.66L6,25.64a.53.53,0,0,1,.11-.21l.76-.81C7.41,24,8,23.42,8.63,22.85s1-.89,1.52-1.32c.9-.75,1.84-1.45,2.81-2.11a41.14,41.14,0,0,1,3.82-2.3L17,17l0,0-.07-.12-1.1-1.62-1-1.47-.11-.16a0,0,0,0,1,0-.06l.48-.28c.77-.43,1.55-.82,2.34-1.19s1.31-.58,2-.83L21,10.73q1.26-.44,2.55-.78l1.25-.32,1.48-.34L27.65,9l.6-.1.39-.06.81-.12.82-.11c.16,0,.33,0,.49-.06l.58-.07L32,8.43l.67-.07h.06l.71,0,.24,0,.26,0,.35,0h0l.93-.06.5,0h.06L37,8.09l1.11,0h2.25a.15.15,0,0,1,.09.06,0,0,0,0,1,0,.06h-2c-.46,0-.93,0-1.39,0H36.8l-.52,0-.5,0h-.07c-.36,0-.72,0-1.08.05l-.24,0-.32,0-.28,0H33.7c-.25,0-.5,0-.75.06s-.45,0-.67.06h-.09l-.63.06c-.31,0-.63.06-.94.11l-.82.1L29,8.94l-.94.15L27,9.29c-.44.08-.89.17-1.33.27-.84.19-1.66.4-2.48.63s-1.81.54-2.7.86-1.73.66-2.57,1-1.6.75-2.37,1.17l-.39.21-.16.1s0,0,0,0a.59.59,0,0,0,0,.08c.44.63.87,1.26,1.3,1.9l.87,1.27.08.13s0,0-.05.05l-.09.05c-1,.51-2,1.06-2.9,1.65s-2,1.35-3,2.09c-.77.59-1.51,1.21-2.23,1.86S7.38,24.22,6.61,25l-.39.43a.43.43,0,0,0-.12.23c-.11.48-.23,1-.34,1.43-.07.28-.13.57-.19.85a.64.64,0,0,1-.12.25c-.42.47-.82,1-1.21,1.45-.15.19-.31.38-.45.58l-.92,1.24Z"/><path class="cls-7" d="M12.38,24.43l-.39.28c-.66.48-1.32,1-2,1.5-.49.4-1,.81-1.44,1.22l-.11.1a.27.27,0,0,0-.1.19.41.41,0,0,1-.28.35.21.21,0,0,1-.28-.2.4.4,0,0,1,.23-.34c.06,0,.11-.06.17,0a.14.14,0,0,0,.15,0l.93-.82c.7-.59,1.41-1.15,2.14-1.7l.68-.5a.37.37,0,0,0,.15-.2l.47-1.31c.15-.4.32-.79.47-1.19a.39.39,0,0,1,.17-.21c.35-.23.7-.46,1.06-.68.67-.42,1.36-.82,2.06-1.19.41-.22.82-.44,1.23-.64.71-.35,1.42-.69,2.14-1l.24-.1a.07.07,0,0,1,.08,0,.91.91,0,0,1,.11.16l.69,1,.07.11a.06.06,0,0,0,.09,0l.09,0c.94-.37,1.89-.7,2.85-1,.58-.2,1.17-.38,1.76-.54s1.44-.39,2.16-.56l1.48-.33,1.32-.25,1.13-.2,1-.15.75-.11L34.4,16l.39,0,.52-.05.54-.07.53-.06.74-.07.58-.06.35,0,.71-.06H39l.31,0,.32,0,.24,0,.52,0h.24l.41,0h.06l1-.05.43,0h.07l1.25-.06.57,0,1,0c.05,0,.07,0,.09.08s0,.06,0,.06l-.19,0-.65,0-.56,0H43.8c-.21,0-.43,0-.64,0h0l-1.17.05-.37,0h-.06l-1,.06-.28,0h-.15c-.3,0-.61,0-.91.06l-.73.06-.15,0-.33,0h-.08l-.67.05-.61.07-.43,0-.56.05-.56.07-.39.05-.77.1c-.44.07-.89.12-1.33.2s-.6.1-.9.15l-.53.09-.85.16-1.63.34c-.55.12-1.09.25-1.63.39s-1.32.35-2,.55c-1.32.41-2.64.85-3.92,1.37l-.06,0c-.09,0-.11,0-.16,0l-.55-.83-.27-.4c0-.07-.06-.07-.14,0l-.93.42c-1.15.52-2.28,1.1-3.37,1.73-.72.41-1.42.84-2.11,1.29a.35.35,0,0,0-.16.2c-.22.53-.43,1.07-.62,1.62-.11.28-.21.57-.31.85Z"/><path class="cls-8" d="M21.81,24c.14-.32.29-.66.44-1l.48-1,.51-.95.17-.07c.74-.26,1.48-.5,2.23-.72s1.8-.51,2.72-.74l1.92-.43c.32-.07.65-.12,1-.18l1.13-.21h.08a.13.13,0,0,1,.1,0l.1.14c.31.47.63.93.95,1.4l.08.13c0,.05.07.05.13.05l1.26-.2.75-.12.78-.1.79-.11.47-.06.52-.05.28,0,.56-.07.6-.06.56-.05.87-.08.62-.07H42l.31,0h.1l.72-.06.69-.06.15,0,.37,0h0l.87-.06.28,0,.19,0,.35,0h.15l.34,0h.2s.05,0,.06.06a.06.06,0,0,0,0,0s0,.08,0,.08l-.09,0-.71.06-.74.05-.34,0-.35,0h-.22l-.34,0h-.09l-.69.06-.73.07-.69.05-.2,0h-.08l-.67.06-.18,0-.15,0c-.24,0-.49,0-.73.07l-.5.06-.64.07-.5.06-.56.07-.38,0-.8.1-.75.11-.66.1-.69.11-.64.11h-.12s-.07-.06-.1-.1c-.31-.47-.62-.94-.94-1.4A1.64,1.64,0,0,0,32.4,19a.11.11,0,0,0-.13-.06l-1.49.28c-.65.12-1.29.26-1.93.41-1.06.26-2.11.53-3.16.84-.69.21-1.38.43-2.06.67l-.1,0a.14.14,0,0,0-.11.09l-.1.17c-.33.61-.64,1.23-.94,1.86l-.3.67-.06.15-.15.07c-.57.22-1.13.45-1.69.69-.71.31-1.41.64-2.1,1-.47.22-.93.47-1.39.71a.3.3,0,0,0-.14.1l-.07.05L16,27l0,0a.08.08,0,0,1-.08,0,.29.29,0,0,1,0-.43.41.41,0,0,1,.36-.14.28.28,0,0,1,.13,0c.07.05.13,0,.2,0l.52-.27c.95-.5,1.93-1,2.91-1.39.54-.24,1.08-.47,1.62-.68Z"/><path class="cls-9" d="M20.65,17.12l-.24.09c-.73.3-1.44.61-2.14.95l-.93.47c-.49.24-1,.5-1.44.76s-1,.6-1.54.92-.94.61-1.4.92c-.18.11-.15.07-.23.27-.27.65-.52,1.32-.76,2-.06.17-.12.33-.17.49a.32.32,0,0,1-.12.18l-.51.37-1,.78c-.76.61-1.49,1.25-2.2,1.91l-.08.08a.23.23,0,0,0-.08.16.41.41,0,0,1-.24.34.25.25,0,0,1-.17,0,.16.16,0,0,1-.14-.14.33.33,0,0,1,0-.17.47.47,0,0,1,.2-.22.19.19,0,0,1,.1,0,.66.66,0,0,1,.14,0,1,1,0,0,0,.11-.1c.39-.37.79-.73,1.19-1.08s1.09-.93,1.65-1.37l.81-.62a.37.37,0,0,0,.15-.2c.1-.3.21-.59.31-.88.19-.53.39-1,.6-1.56a.61.61,0,0,0,0-.12.18.18,0,0,1,.1-.11l.59-.41c.73-.49,1.48-.95,2.25-1.39.55-.32,1.11-.62,1.67-.91.9-.47,1.82-.89,2.75-1.29l.72-.29.06,0a.08.08,0,0,1,.08,0l.08.11.69,1,.08.13c0,.06.06.06.13,0,.58-.21,1.17-.42,1.76-.61s1.41-.46,2.13-.66,1.36-.37,2.05-.53S29,16.13,29.61,16l.77-.15.57-.1.69-.12.68-.11.37,0,.86-.13.79-.1.52-.07.51-.06.56,0,.76-.08.54-.05.37,0,.21,0,.24,0,.32,0h.05l.75-.05.35,0h.06l1-.06.41,0,.13,0,.8,0,1.41,0h.22c.49,0,1,0,1.47,0h.07a.12.12,0,0,1,.11.09s0,.05,0,.05h-.11l-1.28,0-.3,0h-.15L42,14.77l-.41,0h0l-1,.06-.45,0H40l-.93,0-.74.06h-.06l-.74.06-.23,0-.48.05-.56.06-.58.05-.69.08-.54.07-.34,0-.78.1-.66.1-.41.06-.4.06-1,.17-.52.09-.8.16q-.95.19-1.86.42c-.53.12-1.06.26-1.58.4-.76.21-1.51.43-2.26.68s-1.4.47-2.08.73l-.13,0-.06,0-.1-.14-.67-1-.09-.13Z"/><path class="cls-10" d="M21.34,16a.38.38,0,0,1,.13.15l.66,1,.12.18a.09.09,0,0,0,.1,0l1.44-.49c.72-.23,1.44-.45,2.17-.65s1.43-.37,2.15-.53c.47-.11.94-.2,1.42-.3s1-.19,1.53-.29c.3-.06.61-.1.92-.14l1-.16.79-.1.5-.07.51-.06.63-.07h.08l.76-.08h.06l.69-.05.69-.07h.18l.45,0a2.64,2.64,0,0,1,.28,0c.33,0,.67,0,1-.07h.26l.37,0h.19l.74,0c.47,0,1-.06,1.43-.06l.54,0,.39,0,.91,0h.35a.08.08,0,0,1,.07,0,.1.1,0,0,1,0,.11h-.71l-.5,0h-.09l-1.51.06-.5,0-.22,0a5,5,0,0,0-.67,0h-.17l-.57,0h0l-1,.05h-.06l-.74.07H38l-.76.05-.69.07-.54.06-.73.07-.5.06-.6.07-.41.06-.88.12-.64.09-.67.11c-.23,0-.47.07-.7.12s-.56.09-.83.15l-1.38.28c-.34.07-.68.14-1,.23-.64.15-1.29.31-1.93.49-.92.26-1.84.55-2.75.86l-.73.26-.06,0-.06,0L22,17.44l-.63-.94-.14-.19a.08.08,0,0,0-.11,0l-.53.21c-.86.35-1.72.72-2.55,1.12-.44.21-.87.43-1.3.66-.71.38-1.42.78-2.11,1.2s-1.24.78-1.83,1.2c-.16.11-.33.21-.49.33s-.16.09-.27.35-.26.67-.38,1-.33.91-.5,1.36c0,0,0,0,0,0a.36.36,0,0,1-.12.18l-.63.49a39,39,0,0,0-3.79,3.47L6.52,28s0,.08,0,.11a.44.44,0,0,1-.29.35A.17.17,0,0,1,6,28.28a.47.47,0,0,1,.26-.35.11.11,0,0,1,.08,0h.1l.16-.16c.66-.69,1.35-1.35,2.06-2,.44-.41.89-.8,1.36-1.18l.88-.7a.44.44,0,0,0,.13-.2c.18-.51.37-1,.55-1.52.12-.33.26-.65.38-1a.38.38,0,0,1,.15-.2l1-.66c1.08-.74,2.2-1.41,3.35-2s2.25-1.15,3.41-1.64c.45-.19.9-.38,1.35-.55A.61.61,0,0,1,21.34,16Z"/><path class="cls-11" d="M13.49,26.81h0a.24.24,0,0,1-.06-.08s0,0,0,0l.12-.09c.52-.34,1.05-.67,1.59-1l.7-.41c.6-.34,1.23-.66,1.85-1s1.56-.76,2.35-1.11l.14-.06a.16.16,0,0,0,.08-.08,1,1,0,0,0,0-.1c.3-.68.64-1.34,1-2,.08-.14.16-.29.23-.44l.1-.17a.18.18,0,0,1,.11-.1l.28-.11c.82-.3,1.64-.59,2.47-.86s1.41-.43,2.12-.62,1.38-.36,2.08-.52c.52-.12,1-.22,1.57-.33.32-.07.65-.12,1-.18l.59-.11.67-.11.68-.11.62-.1a.12.12,0,0,1,.08,0l.08.1c.27.38.54.77.82,1.15l.07.1a.1.1,0,0,0,.09,0l.31,0,.51-.07.47-.05c.32,0,.63-.09.95-.12l.52-.07h.1l.8-.08.65-.06.65-.07h.21l.31,0h0l.73-.06.78-.07h0l.83-.06.43,0h0l.87-.06.32,0h.13l.89-.05.56,0h.26c.07,0,.1,0,.11.11s0,.05,0,.05l-.06,0-.35,0-1,.06-.44,0h-.23l-.46,0-.21,0-.39,0h-.07l-.86.06-.29,0-.21,0-.33,0-.17,0-.37,0h-.08l-.74,0-.71.07-.63.06-.56.06-.69.07-.51.07-.47.06-.56.07-.48.06-.47.06-.39.05a.06.06,0,0,1-.07,0l-.12-.16-.76-1.08-.08-.1a.12.12,0,0,0-.14-.07l-.71.11-.68.12-.58.1-.9.16c-.47.08-.94.19-1.42.28l-1,.23c-.9.21-1.79.46-2.68.71-.71.21-1.41.43-2.1.68L22,20.26c-.19.06-.17.06-.25.22l-.63,1.21c-.22.44-.43.88-.64,1.33a.42.42,0,0,1,0,.1l-.06.06-.16.07c-.66.29-1.32.58-2,.9-.88.44-1.75.89-2.6,1.38-.61.34-1.2.7-1.79,1.06l-.33.21Z"/><path class="cls-12" d="M32.91,18a1,1,0,0,1,.16.2c.31.45.61.9.92,1.34l.09.13.06,0,.19,0,.68-.11.45-.06.5-.06.41-.06.79-.1.86-.11.48-.05.69-.08.62-.06.24,0h.11l.69-.06.69-.06c.23,0,.46,0,.69-.06l.22,0,.25,0,.39,0,.2,0,.3,0h.07l.82-.06,1.06-.07h.15l.41,0,.5,0c.07,0,.1,0,.09.14s0,0,0,0h-.08l-1,.08h-.19l-.39,0h-.07L44,18.8l-.24,0-.24,0-.32,0h-.09l-.6,0c-.31,0-.61,0-.91.09l-.65,0-.71.07-.61.05-.73.08c-.19,0-.39,0-.58.06l-.41.05-.52.07-.51.06-.37.05-1,.13c-.33,0-.66.1-1,.15l-.6.09a.11.11,0,0,1-.13-.06l-.14-.22c-.32-.45-.63-.91-.94-1.37a.15.15,0,0,0-.17-.07l-.53.09-.83.16L30,18.68l-1.1.24c-.61.13-1.22.29-1.83.45-1,.26-1.94.54-2.9.86-.6.2-1.19.4-1.78.62l-.1,0a.27.27,0,0,0-.1.08c0,.07-.07.13-.1.2-.43.78-.81,1.59-1.17,2.41-.12.27-.06.21-.32.32-.66.27-1.3.57-1.94.87s-1.43.69-2.13,1.07c-.49.26-1,.54-1.46.81l-.13.08c-.05,0-.08,0-.12-.05a.05.05,0,0,1,0,0,.06.06,0,0,1,0,0l.05,0c.55-.31,1.09-.63,1.64-.92.39-.2.77-.41,1.16-.6.92-.46,1.86-.91,2.81-1.3l.1,0a.15.15,0,0,0,.06-.05.91.91,0,0,0,.07-.14l.48-1.06c.25-.53.51-1,.79-1.55a.31.31,0,0,1,.16-.14l1.38-.49c.62-.22,1.25-.42,1.88-.61q1.26-.37,2.52-.69c.49-.12,1-.23,1.46-.33l.93-.2.75-.15.59-.1.64-.12.41-.07A.41.41,0,0,1,32.91,18Z"/><path class="cls-13" d="M22.19,15.22a.16.16,0,0,1,.09-.06l.89-.3c1-.32,2-.62,3-.87.59-.16,1.19-.29,1.79-.43l1-.19,1.06-.2.9-.14.68-.12.2,0a.15.15,0,0,1,.15.06l.51.62.48.59a.21.21,0,0,0,.22.09l.54-.06.56-.08.53-.06h.09l.6-.06.65-.07.65-.06.19,0,.24,0,1-.07h.22l.37,0h.15l.6,0,1.13-.06.39,0,.37,0,.65,0h.5l.78,0h.43l.74,0h.11a.12.12,0,0,1,.09.08v.05l-.11,0-1.47,0-1.35,0-1.15.06h-.21c-.21,0-.42,0-.63,0h-.07l-1,.06h-.2l-.3,0-.37,0h-.06L37,14l-.67.06-.62.06-.65.07-.49.06-.63.08-.43,0-.53.07-.15,0a.66.66,0,0,1-.14-.15l-.88-1.08a.66.66,0,0,0-.14-.15h-.13l-.64.11-.6.09-.62.11-1,.19c-.42.08-.84.18-1.25.27l-1.68.41c-.61.17-1.21.34-1.81.53-.42.13-.84.26-1.26.41l-.14.05c0,.05,0,.07,0,.1l.58.81.15.22.05.06a.43.43,0,0,0,.17,0q1.31-.43,2.64-.78c.63-.17,1.26-.33,1.89-.47l1.36-.28.81-.15a.43.43,0,0,0,.18-.06s0-.05,0-.06-.21-.26-.31-.4-.07,0-.12,0l-.91.18c-.46.1-.92.19-1.38.3s-1.19.27-1.78.44l0,0c-.06.19-.22.25-.4.29a1,1,0,0,1-.34,0,.39.39,0,0,1-.2-.08.18.18,0,0,1,0-.28.53.53,0,0,1,.26-.15.74.74,0,0,1,.51,0,.25.25,0,0,0,.19,0c.65-.18,1.3-.33,2-.48l1.37-.29L30,14c.3-.05.23-.07.4.15s.29.37.43.56c0,0,0,0,0,.06l-.08,0-.28,0c-.41.06-.83.14-1.24.23l-1.08.23c-.5.11-1,.24-1.49.36L25,16.12c-.53.15-1.06.32-1.59.5l-.12,0a.07.07,0,0,1-.08,0l-.07-.09-.85-1.2A.33.33,0,0,1,22.19,15.22Z"/><path class="cls-14" d="M4.06,19.32s0,0,0-.06a2,2,0,0,1,.26-.45c.34-.48.71-.95,1.1-1.4l1.15-1.32.24-.26.7-.71L7.67,15s0,0,0,0a1.34,1.34,0,0,1,.11.14l.54.79s0,.07.1.09l.11-.1c.45-.39.88-.79,1.34-1.16s1.2-.94,1.82-1.38q.3-.22.6-.42l.66-.43c.38-.26.78-.49,1.18-.72.63-.37,1.28-.71,1.93-1,.42-.22.86-.42,1.29-.61.73-.32,1.47-.62,2.21-.89s1.33-.45,2-.66l.26-.08a.3.3,0,0,0,.19-.13c.42-.6.88-1.16,1.31-1.73l0,0a.21.21,0,0,1,.16-.1l.63-.14,1-.19.62-.11.7-.12.41-.06.39,0,.79-.11.41,0a.13.13,0,0,1,.12,0l.36.37.74.76A.18.18,0,0,0,29.9,7H30l.6-.07.45,0,.67-.06.28,0,.18,0,.47,0H33c.22,0,.45,0,.67,0s.67,0,1-.06l.93,0,.54,0h.46l1.8,0h.13a.15.15,0,0,1,.11.06s0,0,0,0H37.47c-.42,0-.85,0-1.28,0h-.34c-.35,0-.7,0-1.05,0h-.32l-.41,0H34l-1,.05-.31,0H32.6l-.78,0L31.06,7,30.44,7l-.63.07H29.7a.12.12,0,0,1-.13,0l-.34-.35L28.53,6l-.12-.12h-.18l-.34,0c-.35,0-.7.11-1.05.15l-1.2.2c-.59.1-1.17.22-1.75.34l-.21.06a6,6,0,0,0-.38.47l-.37.47-.37.49-.36.49-.43.14-1.2.37c-.72.24-1.43.5-2.13.79l-.39.16-.47.2c-.39.18-.77.34-1.14.53-.93.46-1.84,1-2.73,1.48l-.82.52-.36.24c-.28.18-.56.37-.83.57-.59.43-1.18.87-1.76,1.34-.27.22-.54.45-.8.69s-.44.4-.66.59l-.09.07h0a.39.39,0,0,1-.08-.1c-.19-.26-.37-.53-.56-.8,0,0,0-.09-.1-.11l-.05,0c-.37.36-.73.72-1.07,1.11S5.56,17.46,5.1,18c-.2.23-.37.48-.56.72s-.27.37-.41.56c0,0,0,0-.07,0Z"/><path class="cls-15" d="M7.48,16.08a.13.13,0,0,0-.07.05L7,16.5c-.15.15-.29.32-.44.47s-.53.56-.77.86l-.7.83c-.3.38-.6.76-.88,1.15s-.68.93-1,1.41a3.62,3.62,0,0,1-.22.32s0,0,0,0H3a2,2,0,0,1,.19-.42c.17-.27.36-.54.55-.81.43-.63.91-1.23,1.37-1.84l.21-.25.73-.86.13-.14c.27-.29.53-.58.8-.86s.34-.35.52-.52.06,0,.09,0l.05.07.4.57.2.28a.07.07,0,0,0,.06.06.18.18,0,0,0,.09-.06l.46-.42c.5-.44,1-.88,1.53-1.29a33.41,33.41,0,0,1,3.32-2.32c.44-.27.89-.52,1.33-.77.91-.5,1.84-1,2.78-1.37.72-.31,1.46-.6,2.2-.87.95-.34,1.91-.64,2.89-.91.76-.2,1.52-.38,2.29-.55q.51-.12,1-.21l.83-.15.64-.12.43-.06.43-.06.77-.11.54-.07.39,0,.56-.06.67-.07h.06l.71,0,.8-.07h.2l.5,0H34l.48,0h.13l1.5,0,.52,0L37,7h2.11a.14.14,0,0,1,.12.08v0H37.91c-.42,0-.84,0-1.26,0h-.28q-.46,0-.93,0h-.39l-.52,0h0l-1,0-.32,0h-.09l-.8.06-.73.07H31.5c-.27,0-.53,0-.8.08l-.56.06-.47,0-.47.07-.43.06-.88.12L27,8.07l-.81.14-.68.14-1.31.3c-1,.25-2.08.54-3.1.87-.76.25-1.5.52-2.24.82s-1.33.56-2,.87-1.11.54-1.66.84l-1.15.65c-.37.22-.73.46-1.1.69s-1,.64-1.43,1l-1,.75c-.28.21-.54.43-.81.66s-.31.25-.46.39L8.36,17l-.12.1h0L8.12,17l-.55-.78Z"/><path class="cls-16" d="M5.8,16.41s0,0,0-.06a6.12,6.12,0,0,1,.7-.91c.19-.19.36-.39.55-.58l1-1,.07-.05a5,5,0,0,1,.33.47c.11.15.21.31.31.46a.14.14,0,0,0,.11,0l.44-.38,1-.82c.23-.19.48-.36.71-.54a.71.71,0,0,0,.14-.1c.32-.25.66-.47,1-.7.51-.34,1-.68,1.55-1,.22-.14.45-.27.67-.39.55-.31,1.11-.61,1.67-.88s1.24-.58,1.88-.85,1.53-.6,2.31-.86L20.79,8l.11,0L22,6.25a1.11,1.11,0,0,1,.32-.11L24,5.75l1.17-.22,1.2-.19,1-.13.88-.11.6-.06.22,0,.27,0a.42.42,0,0,1,.14.12l1,1c.14.14.11.13.3.11l.37,0h.17l.35,0h.1l.59,0,1,0h.23c.28,0,.57,0,.85,0h.19c.34,0,.68,0,1,0l1,0h.92a.25.25,0,0,1,.21.08v0s0,0,0,0h-.1l-1.33,0-.8,0-.58,0h-.35l-.76,0-.35,0-.43,0h-.06l-1,.06-.86.06c-.24,0-.48,0-.72.06a.14.14,0,0,1-.13,0l-.24-.25-.84-.85-.08-.07a.11.11,0,0,0-.12,0l-.41,0-.54.06-.62.08-.39,0L26,5.55l-.9.15-.51.09c-.33.07-.66.13-1,.21l-1.33.31a.16.16,0,0,0-.12.08l-.11.16-.86,1.36L21.13,8a.15.15,0,0,1-.11.08l-.54.18c-.83.28-1.65.57-2.46.91a33.5,33.5,0,0,0-3,1.43c-.88.47-1.73,1-2.56,1.54l-.47.31c-.44.28-.84.61-1.25.91s-.6.47-.9.72-.68.56-1,.86L8.72,15s0,0,0,0l-.08-.1-.45-.67A1.71,1.71,0,0,1,8,14.13l-.06,0c-.3.29-.61.57-.89.88l-.38.39c-.24.24-.46.5-.68.76l-.18.19,0,0Z"/><path class="cls-17" d="M27.21,10.91l.68-.13.85-.16.64-.11.67-.1.47-.07.32-.05.86-.11.52-.06.41,0,.6-.07.17,0,.26,0,.2,0,.25,0,.11,0,.54,0,.54,0,.89-.06.35,0h0l1.21-.06h.09c.16.13.31.28.46.42l.44.43.44.43h.23l1.06,0,.63,0H43S43,11,43,11v0h-.65l-.91,0-.85,0-1.43,0h-.13a.16.16,0,0,1-.12-.05L38.84,11l-1-1c-.16-.16-.13-.14-.34-.13h-.39l-.39,0h-.09l-1,.06-.24,0h-.11l-.82.06-.58.05-.78.08-.52.05-.6.07-.52.07-.38.05-.77.11-.69.11-.83.14-.83.15-.39.07a.38.38,0,0,0-.22.13l-.73.8L25.67,13l-.08.1a.29.29,0,0,1-.16.11l-.36.09c-1.3.35-2.59.77-3.85,1.24-1,.35-1.91.75-2.84,1.19h0a.11.11,0,0,0-.07.08.55.55,0,0,1-.5.36.38.38,0,0,1-.15,0l-.08,0a.19.19,0,0,1-.09-.26.39.39,0,0,1,.08-.1.55.55,0,0,1,.38-.18.47.47,0,0,1,.17,0,.35.35,0,0,0,.23,0l1.09-.49c.65-.28,1.31-.54,2-.79,1-.37,2-.7,3.07-1l.77-.22a.27.27,0,0,0,.16-.1l.4-.48c.42-.49.84-1,1.28-1.45Z"/><path class="cls-18" d="M30.69,3.65c-.2,0-.38,0-.57,0l-.33,0-.32,0-.22,0-.41,0h-.17l-.35,0-.19,0-.22,0-.1,0-.63,0L26.62,4l-.36,0-.8.1-.64.11c-.19,0-.38.07-.58.09l-1,.19-.93.2c-.54.12-1.08.27-1.62.41l-.14.05c-.1.13-.19.27-.28.41-.38.58-.75,1.17-1.11,1.76l-.05.08a.28.28,0,0,1-.14.12l-.65.23c-.53.2-1.05.42-1.56.65-.74.34-1.47.69-2.18,1.08s-1.52.86-2.25,1.34c-.34.23-.66.47-1,.69a.31.31,0,0,0-.13.19.52.52,0,0,1-.49.39H10.6a.19.19,0,0,1-.12-.14.32.32,0,0,1,0-.17.6.6,0,0,1,.43-.33.65.65,0,0,1,.19,0,30.86,30.86,0,0,1,7.72-4.08L19,7.23c.31-.5.62-1,.94-1.51.11-.19.24-.38.36-.57a.25.25,0,0,1,.15-.1c.67-.18,1.33-.36,2-.51l1.17-.23.87-.16L25.27,4l.77-.1.84-.11H27l.62,0,.67-.07h.15l.3,0h.18l.5,0,.75-.05.63,0a.25.25,0,0,1,.16.06l.22.21,1,.9.08.07a.13.13,0,0,0,.12,0l.43,0,.65,0,.85,0,1.08,0a.36.36,0,0,1,.26.09v0a0,0,0,0,1,0,0h-.08q-.55,0-1.11,0h-.5c-.29,0-.59,0-.88,0l-.63,0a1,1,0,0,1-.3,0l-.22-.19-1-1A1.13,1.13,0,0,1,30.69,3.65Z"/><path class="cls-19" d="M18.37,14h-.21A.37.37,0,0,1,18,14a.19.19,0,0,1-.08-.28l.07-.08a.64.64,0,0,1,.59-.16l.07,0a.17.17,0,0,1,.07.24.18.18,0,0,1-.05.07s0,0-.05,0a.08.08,0,0,1,0,0,.06.06,0,0,1,0,0l.37.53.05,0a.06.06,0,0,0,.06,0l.12,0c1-.42,1.92-.79,2.91-1.12.74-.25,1.48-.49,2.23-.7a.34.34,0,0,0,.18-.11c.19-.24.39-.49.59-.72.36-.44.73-.86,1.1-1.29l0-.05a.21.21,0,0,1,.13-.07l.68-.14,1.29-.25.92-.15,1-.16.82-.1.49-.07.39,0,.56-.06.69-.07h.2l.25,0h.07l.71,0,.28,0h.07l.86-.06.44,0h.06l1.11,0,.84,0h.65a.26.26,0,0,1,.14.1l1.18,1.08s0,0,0,.05a.18.18,0,0,0,.16,0h.11l.69,0h1.37a.14.14,0,0,1,.09.08s0,0,0,0h-.65l-1.32,0H40l-.14-.13-1.1-1-.11-.1a.13.13,0,0,0-.1,0h-.24l-.69,0-.59,0-.3,0-.52,0H36l-.41,0h-.07l-.88.06-.24,0-.2,0-.34,0h-.15l-.3,0h-.13l-.8.08-.56.06-.41.05-.5.07-.36,0-.88.13c-.31,0-.63.09-.94.15s-.57.1-.85.15l-.77.15-.59.12a.15.15,0,0,0-.09.06l-.06.06c-.56.63-1.11,1.28-1.64,1.94l-.06.06a.26.26,0,0,1-.16.11l-1,.29c-1,.31-2,.65-3,1-.49.19-1,.39-1.45.6l-.14.06a.1.1,0,0,1-.13,0l-.34-.5A1.49,1.49,0,0,0,18.37,14Z"/><path class="cls-20" d="M19.22,12.53l.08.13.59.81a.17.17,0,0,0,.06.06,0,0,0,0,0,0,0l.15,0,1-.39c.6-.21,1.2-.42,1.81-.61l.51-.15a.32.32,0,0,0,.18-.12l.28-.36c.44-.56.89-1.11,1.34-1.65l.11-.11c.19-.07.39-.1.58-.15l1-.2.8-.15.9-.16,1-.14L30,9.23l.37-.05.86-.1L31.81,9,32.39,9l.71-.07h.17l.31,0,.21,0,.31,0,.17,0,.41,0h.11l.67,0,.74,0c.52,0,1-.06,1.56-.06l.52,0h1.38c.5.4,1,.85,1.43,1.25a.92.92,0,0,0,.23,0h.78a.12.12,0,0,1,.09.11h-.11L41,10h0a.19.19,0,0,1-.14-.05l-.08-.07-1.2-1.07a.39.39,0,0,0-.1-.08h-.11c-.33,0-.66,0-1,0h-.09l-1.58.06-.46,0H36l-.59,0h-.19l-.5,0-.24,0-.28,0h-.09L33.41,9l-.71.07h-.11c-.25,0-.49,0-.73.07l-.46,0-.51.06-.37.05-.45.07-1,.14-.89.15-1.05.2c-.3.05-.61.12-.91.19l-.49.1a.35.35,0,0,0-.19.12l-.4.47c-.42.51-.84,1-1.25,1.55l0,0a.24.24,0,0,1-.14.1l-.37.11c-1.13.34-2.24.73-3.33,1.16l-.14.06a.07.07,0,0,1-.08,0l-.09-.12-.57-.8-.08-.1a.15.15,0,0,0-.18-.09.47.47,0,0,1-.23,0l-.07,0a.16.16,0,0,1-.06-.18.24.24,0,0,1,.07-.12.56.56,0,0,1,.33-.17h.26a.31.31,0,0,1,.12.05.18.18,0,0,1,.05.25A1.58,1.58,0,0,1,19.22,12.53Z"/><path class="cls-21" d="M21.34,5.67,21.09,6l-.86,1.3-.36.56a.23.23,0,0,1-.12.1l-.14,0a31.69,31.69,0,0,0-3.41,1.4c-.66.31-1.32.65-2,1-.28.16-.56.31-.82.48L13.3,11s0,.07,0,.1a.56.56,0,0,1-.56.37.21.21,0,0,1-.18-.29.54.54,0,0,1,.49-.33.21.21,0,0,1,.11,0,.35.35,0,0,0,.14,0c.84-.52,1.71-1,2.59-1.42.51-.26,1-.49,1.57-.72s1.37-.56,2.06-.79l.13-.06.3-.46c.29-.44.57-.88.86-1.31l.28-.41c.05-.08.1-.14.2-.14.36-.1.71-.2,1.07-.28L23.42,5l.81-.15.87-.15.71-.12.43-.06.32,0,.56-.07.56-.06.62-.07h.15l.35,0,.19,0,.31,0,.15,0,.43,0h.24l.16.15,1,1,.11.1a.14.14,0,0,0,.1,0l.7,0h.13l1.19-.05.8,0,.67,0h1.46a.27.27,0,0,1,.19.08h0a0,0,0,0,1,0,0H35.24l-.74,0h-.61l-.6,0h0c-.39,0-.79,0-1.19,0l-.45,0a.92.92,0,0,1-.33,0l-.21-.18-1-.94c-.14-.15-.11-.14-.32-.13l-.39,0h-.06l-.72.06L28,4.47l-.54,0-.6.07L26,4.7l-.64.1L24.45,5l-1,.19-1.1.24-.92.24Z"/><path class="cls-22" d="M36.35,13.17h.1l.37,0,.26,0,.32,0h.22l.43,0L39,13l.39,0h.09l1.26-.06.56,0h.17l1.87-.06.71,0h.16a.12.12,0,0,1,.07.12v0a1,1,0,0,1-.24,0l-1,0c-.21,0-.43,0-.65,0l-.67,0h0c-.47,0-.94,0-1.41.05l-.44,0h-.1c-.36,0-.71,0-1.07.06l-.84.06-1,.07-.54.05a.19.19,0,0,1-.19-.08L35.83,13c-.26-.31-.53-.61-.8-.91L34.92,12a.88.88,0,0,0-.28,0l-.71.08-.39,0-.54.07-.45.06-.56.07-.36,0-1.24.19c-.29,0-.57.1-.86.15l-1,.19-.21,0a.44.44,0,0,1-.33.26,1,1,0,0,1-.57,0,.27.27,0,0,1-.17-.13.12.12,0,0,1,0-.14.23.23,0,0,1,.11-.11.75.75,0,0,1,.3-.09,1,1,0,0,1,.55.07l1.26-.24,1-.17.71-.1.71-.11.39,0,.86-.1.9-.12.58-.05.22,0a1.58,1.58,0,0,1,.31,0l.1.1,1,1.07A.94.94,0,0,0,36.35,13.17Z"/><path class="cls-23" d="M29.08,12.14l0,0a.33.33,0,0,1-.21.17.67.67,0,0,1-.28.06,1,1,0,0,1-.42-.05.36.36,0,0,1-.16-.11.12.12,0,0,1,0-.16A.44.44,0,0,1,28.2,12a.94.94,0,0,1,.62,0,.44.44,0,0,0,.28,0l1.08-.2.71-.1.75-.11.47-.06.52-.07.39,0,.54-.05.49-.06.82-.08.71-.06.46,0a.38.38,0,0,1,.15.12l1,1.06.07.08a.19.19,0,0,0,.19.07l.26,0,.46,0,.26,0,.43,0H39l1.28-.05.54,0h.13c.64,0,1.28-.06,1.93,0l.82,0h.15a.11.11,0,0,1,.09.09s0,.05,0,.05h-.13l-.91,0-1.28,0-.37,0h-.13l-1.49.05-.5,0-.24,0-.43,0h-.07c-.37,0-.75.05-1.12.07a.18.18,0,0,1-.17-.08c-.31-.32-.62-.65-.92-1l-.06-.06-.2-.2a.88.88,0,0,0-.28,0l-.39,0-.65.06-.58.06-.67.07-.54.07-.4.05-.8.1-.73.11-.64.1-.92.16Z"/><path class="cls-24" d="M30.37,11.34a.43.43,0,0,1-.38.25,1.13,1.13,0,0,1-.41,0,.62.62,0,0,1-.23-.07l-.07,0a.14.14,0,0,1,0-.24.69.69,0,0,1,.28-.11H30a.6.6,0,0,1,.19.06.33.33,0,0,0,.17,0l.51-.07.45-.07.41-.05.62-.08.52-.06.58-.07.61-.06.21,0h.07l.69-.06.26,0h.08l.82,0,.31,0h.39a1.18,1.18,0,0,1,.21.18l1,1,.1.09a.11.11,0,0,0,.09,0l.7,0,.47,0,.65,0,.52,0,.76,0h.44l1.47,0h.24a.1.1,0,0,1,.08.09,0,0,0,0,1,0,0l-.11,0-.67,0h-1l-.73,0-.61,0-.54,0-.65,0h-.26l-.5,0L38,12a.51.51,0,0,1-.15-.14c-.35-.38-.71-.74-1.07-1.1l-.07-.07h-.13a4.9,4.9,0,0,0-.54,0H36c-.27,0-.55,0-.82.06l-.71.06-.59.06-.66.07-.54.06-.56.07-.5.07-.45.06-.4.06Z"/><path class="cls-25" d="M35.68,16.52s0,0,0,0a.36.36,0,0,1-.25.2,1.17,1.17,0,0,1-.74,0,.41.41,0,0,1-.2-.12.17.17,0,0,1,0-.28.8.8,0,0,1,.16-.08,1.09,1.09,0,0,1,.51,0,1.6,1.6,0,0,1,.31.1.25.25,0,0,0,.17,0l.81-.09.78-.09.67-.05.67-.07h.13l.39,0h.19l.28,0h.07l.86,0,.41,0H41l.71,0,.67,0,1.15-.06.41,0H44l1.52-.06h.13l0,.07s0,.07,0,.07l-.11,0h-.32l-.57,0h-.08l-1.28.05-.28,0h-.11c-.33,0-.65,0-1,.06l-.51,0h-.22l-.39,0h-.09c-.24,0-.49,0-.73,0l-1,.08c-.23,0-.46,0-.69.06l-.67.07h-.06c-.29,0-.56.05-.84.08l-.59.06Z"/><path class="cls-26" d="M18.05,7.06l.17-.28.72-1.21c.14-.24.09-.17.33-.29l0,0h0s0,0,0,0l-.24.39L18.34,7s0,0,0,.08a.28.28,0,0,1-.18.14l-.28.12c-.51.19-1,.41-1.5.63s-1.11.53-1.65.81L14.23,9l-1.16.68c-.68.4-1.32.85-2,1.31s-1.32,1-2,1.53l-.06.06a.09.09,0,0,0,0,.06s0,0,0,.06a.52.52,0,0,1-.26.38.42.42,0,0,1-.22.08.14.14,0,0,1-.12,0,.06.06,0,0,1,0,0A.18.18,0,0,1,8.47,13c.15-.17.3-.33.46-.49l.22-.2c.43-.35.84-.69,1.27-1s.86-.64,1.3-.95A28.41,28.41,0,0,1,14.31,8.8c.5-.28,1-.53,1.54-.78q1-.49,2.07-.9Z"/><path class="cls-27" d="M39.73,16.8l0,0a.34.34,0,0,1-.23.19,1.34,1.34,0,0,1-.93-.08.47.47,0,0,1-.15-.13.16.16,0,0,1,0-.21l.13-.08a1.14,1.14,0,0,1,.25-.06,1.39,1.39,0,0,1,.7.12.39.39,0,0,0,.21,0l.24,0,.41,0h.19l.39,0,.2,0,.45,0h0l1-.06.45,0,.3,0,.37,0h.09l1.15-.05c.21,0,.42,0,.63,0l.3,0,.08,0a.3.3,0,0,1,0,.08.06.06,0,0,1,0,.07h0l-1,.05-.55,0h-.06l-1.06.06-1.15.07h-.32l-.89.07-.19,0-.35,0-.35,0A1.09,1.09,0,0,0,39.73,16.8Z"/><path class="cls-28" d="M42.78,16.92a1.46,1.46,0,0,1,.65.14.31.31,0,0,0,.19,0c.16,0,.32,0,.47,0l1.09,0,.5,0,.38,0h.09s.1.09.08.13a0,0,0,0,1,0,0l-.34,0-1.17.06-.8.05-.2,0s0,0-.07.05a.34.34,0,0,1-.25.17,1.18,1.18,0,0,1-.56,0,1.43,1.43,0,0,1-.28-.07l-.19-.09a.57.57,0,0,1-.11-.11.17.17,0,0,1,0-.2.57.57,0,0,1,.28-.11Z"/><path class="cls-29" d="M22.79,4a.1.1,0,0,1,.07,0l.67-.18,1.12-.25.64-.1.88-.12.54-.06.66-.07c.1,0,.21,0,.31,0a17,17,0,0,1,1.75,0h.06s0,0,0,0c-.22,0-.44.05-.67.05L28,3.29l-.17,0-.26,0h-.11l-.65.06-.51.07-.41,0-.77.1-.58.09-.68.12-.58.1L22.79,4Z"/><path class="cls-30" d="M34.44,4.34h-.93l-.52,0h-.22a.16.16,0,0,1-.11,0l-.9-.82s0,0,0,0,0,0,.05,0l.17,0h0a.4.4,0,0,1,.2.11l.35.33.26.23a.2.2,0,0,0,.18.06l1.08,0h.15a.37.37,0,0,1,.22.08S34.44,4.32,34.44,4.34Z"/><path class="cls-31" d="M1.61,26s0,0,0,0a.88.88,0,0,1,.1-.27c.16-.29.32-.58.5-.86a.74.74,0,0,0,.1-.26c0-.31.1-.63.16-.94s.1-.54.15-.81c0-.1,0-.2.05-.29A2.26,2.26,0,0,1,2.83,22l0,0,0,0c-.06.31-.11.61-.17.92s-.09.48-.14.72-.07.43-.11.64a2.34,2.34,0,0,0,0,.26.52.52,0,0,1-.1.26c-.22.36-.43.72-.63,1.09C1.67,25.89,1.66,25.94,1.61,26Z"/><path class="cls-32" d="M22.79,4s0,0,0,0,0,0,0,0Z"/><path class="cls-33" d="M4.06,19.32l0,.11H4v0s0-.06,0-.07Z"/><path class="cls-34" d="M5.73,16.45l.07,0h0s0,0-.07,0Z"/><path class="cls-35" d="M5.73,16.45h0s0,0,0,0Z"/><path class="cls-36" d="M4,19.43H4s0,0,0,0Z"/><path class="cls-2" d="M63.57,63.75a.67.67,0,0,1-.1.32,33.51,33.51,0,0,1-2.68,4.83,28,28,0,0,1-4,4.79,23.79,23.79,0,0,1-8.51,5.24,21.23,21.23,0,0,1-3.61.92,19.68,19.68,0,0,1-4.2.24,19.14,19.14,0,0,1-2.25-.26,35.36,35.36,0,0,1-9.95-3.43,41.59,41.59,0,0,1-10.91-8A38.14,38.14,0,0,1,8.62,54.64,29.68,29.68,0,0,1,7.34,50c-.15-.82-.26-1.63-.33-2.46a21.23,21.23,0,0,1,0-3.19A18.48,18.48,0,0,1,10.85,34a16.53,16.53,0,0,1,2.77-2.84L14,30.9c0,.08.06.13.08.18.27,1,.56,2,.88,3a47.81,47.81,0,0,0,4.37,9.74,38.85,38.85,0,0,0,8,9.56A39.6,39.6,0,0,0,35.69,59a45.55,45.55,0,0,0,8.43,3.16c1.49.41,3,.74,4.52,1,.85.15,1.71.28,2.57.39s1.66.19,2.49.28c.4,0,.79.05,1.19.08l1.35.06c1.23.08,2.47.06,3.7,0,1,0,2-.09,3-.18l.45,0Z"/><path class="cls-2" d="M74,73.67V71.43a1.48,1.48,0,0,0-.22-.91,1,1,0,0,0-.79-.27,3.92,3.92,0,0,0-.59,0v3.37H70.51A3.82,3.82,0,0,1,67.93,73a2.5,2.5,0,0,1-.74-2,4,4,0,0,1,.24-1.42l1.27-.21a3.64,3.64,0,0,0-.31,1.49,1.83,1.83,0,0,0,.49,1.42,2.68,2.68,0,0,0,1.75.45h.62V69.48a9.46,9.46,0,0,1,1.82-.17,2.17,2.17,0,0,1,1.64.54,2.09,2.09,0,0,1,.44,1.46v1.42h1.77v-3.3h1.19v4.24Zm-4,1.79a.57.57,0,0,1-.43.18.61.61,0,0,1-.42-.17.6.6,0,0,1-.17-.44.6.6,0,0,1,.59-.61.56.56,0,0,1,.43.17.6.6,0,0,1,.18.44A.58.58,0,0,1,70,75.46Zm1.49,0a.54.54,0,0,1-.42.18.61.61,0,0,1-.42-.17.6.6,0,0,1-.17-.44.6.6,0,0,1,.59-.61.54.54,0,0,1,.42.17.6.6,0,0,1,.18.44A.58.58,0,0,1,71.45,75.46Zm5.63-7a.62.62,0,0,1-.19-.45.63.63,0,0,1,.19-.44.6.6,0,0,1,.44-.18.61.61,0,0,1,.62.62.63.63,0,0,1-.18.45.62.62,0,0,1-.44.18A.59.59,0,0,1,77.08,68.49Z"/><path class="cls-2" d="M79.09,75.83l.07-1a6.83,6.83,0,0,0,1.41.15c1.05,0,1.57-.4,1.57-1.2v-.14h-.71C79.82,73.67,79,73,79,71.58A2.24,2.24,0,0,1,79.58,70a2.38,2.38,0,0,1,1.83-.69,5.45,5.45,0,0,1,1.88.31v4.07a2,2,0,0,1-.65,1.6,3.15,3.15,0,0,1-2.17.66A8,8,0,0,1,79.09,75.83Zm3-5.42a2.16,2.16,0,0,0-.86-.16,1,1,0,0,0-.79.35,1.29,1.29,0,0,0-.29.87c0,.84.45,1.26,1.36,1.26h.58Z"/><path class="cls-2" d="M86.76,73.67v0A2,2,0,0,1,84.52,76a3.22,3.22,0,0,1-.76-.09l.09-.95a2.76,2.76,0,0,0,.74.11.88.88,0,0,0,.71-.27,1.47,1.47,0,0,0,.26-1V69.43h1.2v3.3h1.87v-3.3h1.19v3.3h.81v.94Zm1.12-5.11a.61.61,0,0,1-.17-.43.64.64,0,0,1,.17-.44.58.58,0,0,1,.42-.18.59.59,0,0,1,.44.18.64.64,0,0,1,.17.44.61.61,0,0,1-.17.43.59.59,0,0,1-.44.18A.58.58,0,0,1,87.88,68.56Zm1.5,0a.61.61,0,0,1-.17-.43.64.64,0,0,1,.17-.44.58.58,0,0,1,.42-.18.58.58,0,0,1,.43.18.64.64,0,0,1,.17.44.61.61,0,0,1-.17.43.58.58,0,0,1-.43.18A.58.58,0,0,1,89.38,68.56Z"/><path class="cls-2" d="M90.51,72.73h2.66v.94H90.51Z"/><path class="cls-2" d="M93.07,72.73h2.66v.94H93.07Z"/><path class="cls-2" d="M95.62,72.73h2.69a2.56,2.56,0,0,0-2.22-2.55v-.87l3.58-2.24v1.18l-2.2,1.33a3.36,3.36,0,0,1,2,3.15h.74v.94H95.62Z"/><path class="cls-2" d="M100.06,72.73h1.12V67.3h1.19v6.37h-2.31Z"/><path class="cls-2" d="M106,72.06H104.8l-1.29-4.65,1.18-.17Zm-2.13,1.61v-.94h2.79V67.3h1.19v6.37Z"/><path class="cls-2" d="M109.48,67.3h1.19v6.37h-1.19Z"/><path class="cls-2" d="M115.5,75.51a1.3,1.3,0,0,1-.6-1.12,1.55,1.55,0,0,1,.67-1.26,6.94,6.94,0,0,1,1.4-.77,4.7,4.7,0,0,0-1.81-1.22l.11-.85a4.51,4.51,0,0,1,2.61-1,2.1,2.1,0,0,1,1.45.45,1.33,1.33,0,0,1,.45,1,2,2,0,0,1-1,1.67,2.3,2.3,0,0,0,1.11.29h.6v.94h-.73a3.22,3.22,0,0,1-2-.67,12.22,12.22,0,0,0-1.11.59.86.86,0,0,0-.49.68q0,.78,1.47.78a7.56,7.56,0,0,0,1.36-.12l.07.9a8.24,8.24,0,0,1-1.56.15A3.41,3.41,0,0,1,115.5,75.51Zm2.44-3.64a1.2,1.2,0,0,0,.66-1,.7.7,0,0,0-.21-.54.88.88,0,0,0-.65-.22,2.65,2.65,0,0,0-1.37.54A7.55,7.55,0,0,1,117.94,71.87Z"/><path class="cls-2" d="M120.33,72.73H123v.94h-2.66Z"/><path class="cls-2" d="M122.89,72.73h2.66v.94h-2.66Z"/><path class="cls-2" d="M125.44,73.67v-.94H126a1.62,1.62,0,0,1,.5.07,1.53,1.53,0,0,1-.5-1.3,2.09,2.09,0,0,1,.58-1.52,2.33,2.33,0,0,1,1.77-.67,1.82,1.82,0,0,1,2,2.08v2.28Zm3.75-2.14c0-.85-.33-1.28-1-1.28a1,1,0,0,0-.79.35,1.29,1.29,0,0,0-.29.87c0,.84.45,1.26,1.36,1.26h.69Zm-1.44-3.07a.64.64,0,0,1-.18-.45.62.62,0,1,1,.62.62A.64.64,0,0,1,127.75,68.46Z"/><path class="cls-2" d="M131.48,72.73h2.68A2.51,2.51,0,0,0,132,70.21l.29-1a4.24,4.24,0,0,1,2.15,1.19,3.73,3.73,0,0,1,.85,2.33h.59v.94h-4.43Z"/><path class="cls-2" d="M135.77,72.73h1.12V67.3h1.19v5.43H139v.94h-3.22Z"/><path class="cls-2" d="M138.85,72.73H140V67.3h1.19v6.37h-2.31Z"/><path class="cls-2" d="M145.56,73.18a5.79,5.79,0,0,1,.22-1.61l1.23-.22a6.32,6.32,0,0,0-.26,1.73c0,1.16.41,1.74,1.24,1.74s1.13-.57,1.13-1.71V70h1.19v1.67a1.82,1.82,0,0,0,.16.9.54.54,0,0,0,.51.27c.46,0,.69-.39.69-1.16v-2h1.13v2.26a.85.85,0,0,0,.23.7,1.54,1.54,0,0,0,.85.16h.23a9.21,9.21,0,0,0,.07-1.08,11.36,11.36,0,0,0-.26-2.42l1.17-.16a10.89,10.89,0,0,1,.28,2.5,16.67,16.67,0,0,1-.13,2.1h-1.5c-.92,0-1.48-.2-1.67-.62a1.11,1.11,0,0,1-1.13.68.75.75,0,0,1-.68-.28,2.2,2.2,0,0,1-.7,1.78,2.49,2.49,0,0,1-1.67.52C146.34,75.75,145.56,74.9,145.56,73.18ZM151,68.56a.58.58,0,0,1-.18-.43.6.6,0,0,1,.18-.44.58.58,0,0,1,.84,0,.6.6,0,0,1,.18.44.58.58,0,0,1-.18.43.58.58,0,0,1-.84,0Zm.77-1.27a.57.57,0,0,1,.39-1,.54.54,0,0,1,.4.17.58.58,0,0,1,0,.8.54.54,0,0,1-.4.17A.54.54,0,0,1,151.81,67.29Zm.72,1.27a.58.58,0,0,1-.18-.43.6.6,0,0,1,.18-.44.58.58,0,0,1,.43-.18.54.54,0,0,1,.42.18.6.6,0,0,1,.17.44.57.57,0,0,1-.17.43.54.54,0,0,1-.42.18A.58.58,0,0,1,152.53,68.56Z"/><path class="cls-2" d="M156.85,67.3H158v5.43H159v.94h-2.1Z"/><path class="cls-2" d="M158.81,72.73h2.68a2.55,2.55,0,0,0-2.21-2.55v-.87l3.58-2.24v1.18l-2.2,1.33a3.46,3.46,0,0,1,2,3.49v.6h-3.85Z"/><path class="cls-2" d="M163.87,71.63V70.7h2.22v.93Z"/><path class="cls-2" d="M170.35,73.67a3.82,3.82,0,0,1-2.58-.71,2.5,2.5,0,0,1-.74-2,4.27,4.27,0,0,1,.23-1.42l1.28-.21a3.49,3.49,0,0,0-.31,1.49,1.8,1.8,0,0,0,.49,1.42,2.67,2.67,0,0,0,1.75.45h.62V69.48a9.35,9.35,0,0,1,1.81-.17,2.14,2.14,0,0,1,1.64.54,2,2,0,0,1,.45,1.46v1.28h-1.16V71.43a1.41,1.41,0,0,0-.22-.91.94.94,0,0,0-.78-.27,3.81,3.81,0,0,0-.59,0v3.37Zm-.55,1.79a.58.58,0,0,1-.43.18.57.57,0,0,1-.42-.17.6.6,0,0,1-.18-.44.58.58,0,0,1,.18-.43.54.54,0,0,1,.42-.18.56.56,0,0,1,.43.17A.6.6,0,0,1,170,75,.58.58,0,0,1,169.8,75.46Zm1.49,0a.54.54,0,0,1-.42.18.57.57,0,0,1-.42-.17.6.6,0,0,1-.18-.44.58.58,0,0,1,.18-.43.54.54,0,0,1,.42-.18.54.54,0,0,1,.42.17.6.6,0,0,1,.18.44A.58.58,0,0,1,171.29,75.46Z"/><path class="cls-2" d="M175.86,75.42a2.88,2.88,0,0,1,.48,0,.4.4,0,0,1-.16-.34.75.75,0,0,1,.31-.6,1.49,1.49,0,0,1,.95-.27,1.84,1.84,0,0,1,.53.06l-.11.61a3.39,3.39,0,0,0-.45,0c-.27,0-.41.08-.41.26s.2.29.58.29h.55v.63h-2.27Zm.61-8.12h1.2v6.37h-1.2Z"/></svg>