<svg width="0" height="0" class="hidden">
  <symbol fill="none" xmlns="http://www.w3.org/2000/svg" viewBox="0 0 24 24" id="icon-pin">
    <path d="M21 10C21 17 12 23 12 23C12 23 3 17 3 10C3 7.61305 3.94821 5.32387 5.63604 3.63604C7.32387 1.94821 9.61305 1 12 1C14.3869 1 16.6761 1.94821 18.364 3.63604C20.0518 5.32387 21 7.61305 21 10Z" stroke="#21B7E6" stroke-width="2" stroke-linecap="round" stroke-linejoin="round"></path>
    <path d="M12 13C13.6569 13 15 11.6569 15 10C15 8.34315 13.6569 7 12 7C10.3431 7 9 8.34315 9 10C9 11.6569 10.3431 13 12 13Z" stroke="#21B7E6" stroke-width="2" stroke-linecap="round" stroke-linejoin="round"></path>
  </symbol>
  <symbol xmlns="http://www.w3.org/2000/svg" viewBox="0 0 58 58" id="icon-web">
    <path id="icon-web" d="M50.688,48.222a28.922,28.922,0,0,0-.56-39.056h0c0-.006-.01-.008-.013-.013A28.918,28.918,0,0,0,30,.026h0L29.439.01C29.293,0,29.147,0,29,0s-.293,0-.439.01L28,.025h0A28.918,28.918,0,0,0,7.887,9.152c0,.005-.01.007-.013.013a0,0,0,0,1,0,0,28.919,28.919,0,0,0-.561,39.055c.006.009.006.019.013.028.018.025.044.037.063.06A28.934,28.934,0,0,0,28,57.975h0l.563.015c.147,0,.293.009.44.009s.293-.005.439-.01L30,57.975h0a28.933,28.933,0,0,0,20.625-9.685c.013-.017.034-.022.046-.04S50.682,48.231,50.688,48.222ZM2.025,30h12a36.956,36.956,0,0,0,2.415,12.217,36.873,36.873,0,0,0-8.111,4.131A26.875,26.875,0,0,1,2.025,30ZM8.878,11.023a36.783,36.783,0,0,0,7.9,3.882A36.927,36.927,0,0,0,14.028,28h-12A26.882,26.882,0,0,1,8.878,11.023ZM55.975,28h-12a36.927,36.927,0,0,0-2.75-13.1,36.783,36.783,0,0,0,7.9-3.882A26.882,26.882,0,0,1,55.975,28ZM28,14.963a34.958,34.958,0,0,1-8.471-1.283A34.988,34.988,0,0,1,28,2.644Zm0,2V28H16.028a34.926,34.926,0,0,1,2.666-12.475A36.948,36.948,0,0,0,28,16.963Zm2,0a36.918,36.918,0,0,0,9.307-1.438A34.926,34.926,0,0,1,41.973,28H30Zm0-2V2.644A34.988,34.988,0,0,1,38.471,13.68,34.958,34.958,0,0,1,30,14.963Zm10.409-1.891A36.93,36.93,0,0,0,32.521,2.237,26.922,26.922,0,0,1,47.7,9.555,34.782,34.782,0,0,1,40.409,13.072Zm-22.818,0A34.751,34.751,0,0,1,10.3,9.555,26.919,26.919,0,0,1,25.48,2.237,36.915,36.915,0,0,0,17.591,13.072ZM16.028,30H28V40.038a36.883,36.883,0,0,0-9.661,1.541A34.924,34.924,0,0,1,16.028,30ZM28,42.038V55.356a34.97,34.97,0,0,1-8.884-11.917A34.867,34.867,0,0,1,28,42.038Zm2,13.318V42.038a34.866,34.866,0,0,1,8.884,1.4A34.964,34.964,0,0,1,30,55.356Zm0-15.318V30H41.972A34.911,34.911,0,0,1,39.66,41.58,36.828,36.828,0,0,0,30,40.038ZM43.972,30h12a26.869,26.869,0,0,1-6.307,16.348,36.873,36.873,0,0,0-8.111-4.131A36.931,36.931,0,0,0,43.972,30ZM9.691,47.846a34.851,34.851,0,0,1,7.517-3.781,36.9,36.9,0,0,0,8.271,11.7A26.943,26.943,0,0,1,9.691,47.846Zm22.83,7.917a36.878,36.878,0,0,0,8.271-11.7,34.874,34.874,0,0,1,7.517,3.781A26.943,26.943,0,0,1,32.521,55.763Z" fill="#21b7e6"></path>
  </symbol>
  <symbol fill="none" xmlns="http://www.w3.org/2000/svg" viewBox="0 0 20 16" id="icon-checkmark">
    <path d="M18 2.50171L7 13.5017L2 8.50171" stroke="#21B7E6" stroke-width="4" stroke-linecap="round" stroke-linejoin="round"></path>
  </symbol>
  <symbol fill="none" xmlns="http://www.w3.org/2000/svg" viewBox="0 0 18 18" id="icon-send">
    <path fill-rule="evenodd" clip-rule="evenodd" d="M16.7949 0.969691C16.9986 1.17342 17.0676 1.47584 16.9724 1.74778L11.7224 16.7478C11.6208 17.038 11.3524 17.2369 11.0451 17.2494C10.7378 17.2619 10.4541 17.0856 10.3292 16.8046L7.44633 10.3182L0.959926 7.43538C0.678916 7.31049 0.502618 7.02671 0.515154 6.71945C0.527689 6.41219 0.726517 6.14371 1.01677 6.04213L16.0168 0.792127C16.2887 0.696948 16.5911 0.765962 16.7949 0.969691ZM8.90909 9.91612L10.9316 14.4667L14.4709 4.35429L8.90909 9.91612ZM13.4103 3.29362L3.29784 6.83297L7.84843 8.85546L13.4103 3.29362Z" fill="#21B7E6"></path>
  </symbol>
  <symbol fill="none" xmlns="http://www.w3.org/2000/svg" viewBox="0 0 56 56" id="icon-upload">
    <path d="M44 33V40.3333C44 41.3058 43.6254 42.2384 42.9586 42.9261C42.2918 43.6137 41.3874 44 40.4444 44H15.5556C14.6126 44 13.7082 43.6137 13.0414 42.9261C12.3746 42.2384 12 41.3058 12 40.3333V33" stroke="#21B7E6" stroke-width="4" stroke-linecap="round" stroke-linejoin="round"></path>
    <path d="M37 21L28 12L19 21" stroke="#21B7E6" stroke-width="4" stroke-linecap="round" stroke-linejoin="round"></path>
    <path d="M28 12V33" stroke="#21B7E6" stroke-width="4" stroke-linecap="round" stroke-linejoin="round"></path>
  </symbol>
  <symbol fill="none" xmlns="http://www.w3.org/2000/svg" viewBox="0 0 14 8" id="icon-chevron-down">
    <path d="M1 1L7 7L13 1" stroke="#727788" stroke-width="2" stroke-linecap="round" stroke-linejoin="round"></path>
  </symbol>
  <symbol fill="none" xmlns="http://www.w3.org/2000/svg" viewBox="0 0 18 12" id="icon-chevron-down-bold">
    <path d="M8.35197 10.789L0.934639 3.37158C0.576906 3.01385 0.576906 2.43388 0.934639 2.07618L1.79975 1.21107C2.15687 0.853948 2.73566 0.853261 3.09362 1.20954L8.99969 7.08794L14.9057 1.20954C15.2637 0.853261 15.8425 0.853948 16.1996 1.21107L17.0647 2.07618C17.4224 2.43391 17.4224 3.01389 17.0647 3.37158L9.64737 10.7889C9.28968 11.1466 8.7097 11.1466 8.35197 10.789Z" fill="#01244A"></path>
  </symbol>
  <symbol fill="none" xmlns="http://www.w3.org/2000/svg" viewBox="0 0 12 18" id="icon-chevron-right">
    <path d="M10.789 9.64773L3.37167 17.0651C3.01394 17.4228 2.43397 17.4228 2.07627 17.0651L1.21116 16.2C0.85404 15.8428 0.853353 15.264 1.20963 14.9061L7.08803 9.00001L1.20963 3.09398C0.853353 2.73602 0.85404 2.15723 1.21116 1.80011L2.07627 0.934994C2.43401 0.577262 3.01398 0.577262 3.37167 0.934994L10.789 8.35233C11.1467 8.71002 11.1467 9.29 10.789 9.64773Z" fill="currentcolor"></path>
  </symbol>
  <symbol fill="none" xmlns="http://www.w3.org/2000/svg" viewBox="0 0 12 18" id="icon-chevron-right-white">
    <path d="M10.789 9.64773L3.37167 17.0651C3.01394 17.4228 2.43397 17.4228 2.07627 17.0651L1.21116 16.2C0.85404 15.8428 0.853353 15.264 1.20963 14.9061L7.08803 9.00001L1.20963 3.09398C0.853353 2.73602 0.85404 2.15723 1.21116 1.80011L2.07627 0.934994C2.43401 0.577262 3.01398 0.577262 3.37167 0.934994L10.789 8.35233C11.1467 8.71002 11.1467 9.29 10.789 9.64773Z" fill="white"></path>
  </symbol>
  <symbol fill="none" xmlns="http://www.w3.org/2000/svg" viewBox="0 0 28 20" id="icon-chevron-up">
    <path d="M2 18L13.2 3.06667C13.6 2.53333 14.4 2.53333 14.8 3.06667L26 18" stroke="#0E598F" stroke-width="4" stroke-linecap="round"></path>
  </symbol>
  <symbol fill="currentcolor" xmlns="http://www.w3.org/2000/svg" viewBox="0 0 32 32" id="icon-close">
    <path d="M24 8L8 24" stroke="black" stroke-width="2" stroke-linecap="round" stroke-linejoin="round" fill="currentcolor"></path>
    <path d="M8 8L24 24" stroke="black" stroke-width="2" stroke-linecap="round" stroke-linejoin="round" fill="currentcolor"></path>
  </symbol>
  <symbol fill="none" xmlns="http://www.w3.org/2000/svg" viewBox="0 0 24 24" id="icon-mail">
    <path d="M4 4H20C21.1 4 22 4.9 22 6V18C22 19.1 21.1 20 20 20H4C2.9 20 2 19.1 2 18V6C2 4.9 2.9 4 4 4Z" stroke="#21B7E6" stroke-width="2" stroke-linecap="round" stroke-linejoin="round"></path>
    <path d="M22 6L12 13L2 6" stroke="#21B7E6" stroke-width="2" stroke-linecap="round" stroke-linejoin="round"></path>
  </symbol>
  <symbol fill="none" xmlns="http://www.w3.org/2000/svg" viewBox="0 0 24 24" id="icon-phone">
    <path d="M22.0001 16.92V19.92C22.0012 20.1985 21.9441 20.4742 21.8326 20.7293C21.721 20.9845 21.5574 21.2136 21.3521 21.4019C21.1469 21.5901 20.9046 21.7335 20.6408 21.8227C20.377 21.9119 20.0974 21.9451 19.8201 21.92C16.7429 21.5856 13.7871 20.5341 11.1901 18.85C8.77388 17.3147 6.72539 15.2662 5.19006 12.85C3.50003 10.2412 2.4483 7.27099 2.12006 4.18C2.09507 3.90346 2.12793 3.62476 2.21656 3.36162C2.30518 3.09849 2.44763 2.85669 2.63482 2.65162C2.82202 2.44655 3.04986 2.28271 3.30385 2.17052C3.55783 2.05833 3.8324 2.00026 4.11006 2H7.11006C7.59536 1.99522 8.06585 2.16708 8.43382 2.48353C8.80179 2.79998 9.04213 3.23944 9.11005 3.72C9.23668 4.68006 9.47151 5.62272 9.81006 6.53C9.9446 6.88792 9.97372 7.27691 9.89396 7.65088C9.81421 8.02484 9.62892 8.36811 9.36005 8.64L8.09006 9.91C9.51361 12.4135 11.5865 14.4864 14.0901 15.91L15.3601 14.64C15.6319 14.3711 15.9752 14.1858 16.3492 14.1061C16.7231 14.0263 17.1121 14.0555 17.4701 14.19C18.3773 14.5285 19.32 14.7634 20.2801 14.89C20.7658 14.9585 21.2095 15.2032 21.5266 15.5775C21.8437 15.9518 22.0122 16.4296 22.0001 16.92Z" stroke="#21B7E6" stroke-width="2" stroke-linecap="round" stroke-linejoin="round"></path>
  </symbol>
</svg>