<?xml version="1.0" encoding="utf-8"?>
<!-- Generator: Adobe Illustrator 26.5.0, SVG Export Plug-In . SVG Version: 6.00 Build 0)  -->
<svg version="1.1" id="Capa_1" xmlns="http://www.w3.org/2000/svg" xmlns:xlink="http://www.w3.org/1999/xlink" x="0px" y="0px"
	 viewBox="0 0 122.2 122.2" style="enable-background:new 0 0 122.2 122.2;" xml:space="preserve">
<style type="text/css">
	.st0{fill:#E8A523;}
	.st1{fill:#0B3947;}
</style>
<g>
	<path class="st0" d="M-1829.3,324.9c2.1,0.2,4.6,0.3,7,0.6c2.9,0.4,5.7,1.1,8.5,2.1c1.5,0.6,2.9,1.4,4.4,2.1
		c1.3,0.7,2.3,1.6,3.2,2.5c1.9,2,3,4.4,2.1,7.2c-0.5,1.4-1.3,2.7-2.4,3.7c-1.2,1-2.4,2-3.8,2.8c-1.8,0.9-3.7,1.8-5.6,2.3
		c-3.3,0.9-6.7,1.7-10.1,1.9c-3.4,0.2-6.9,0.2-10.3-0.3c-2.2-0.4-4.3-1-6.5-1.4c-1.5-0.3-2.9-0.9-4.3-1.5c-0.8-0.4-1.6-0.7-2.3-1.1
		c-1-0.6-2.1-1.2-2.9-2c-1.9-1.7-3.4-3.6-3.3-6.3c0-2.2,1-4,2.6-5.4c0.8-0.7,1.5-1.4,2.4-2c1-0.7,2.1-1.3,3.3-1.8
		c2.4-0.9,4.7-1.7,7.2-2.3c1.7-0.4,3.6-0.6,5.4-0.8C-1833.1,325.1-1831.3,325-1829.3,324.9z M-1827.7,329.3c-0.6,0-1.1,0-1.5,0
		c-1.2,0-1.2,0-1.2,1.2c0,0.4-0.1,0.5-0.5,0.6c-0.9,0.1-1.7,0.2-2.5,0.4c-1.3,0.3-2.6,0.6-3.6,1.7c-1,1.1-0.9,2.1,0.1,3.1
		c1.1,1.1,2.6,1.4,4,1.7c2,0.5,4.1,0.9,6.1,1.5c1.1,0.3,1.4,1.4,0.7,2c-0.3,0.3-0.7,0.5-1.1,0.5c-1.4,0.1-2.8,0.1-4.2,0
		c-0.9-0.1-1.6-0.6-1.9-1.5c-0.1-0.2-0.3-0.4-0.4-0.4c-1.4,0-2.8,0-4.3,0c-0.1,0-0.3,0.1-0.3,0.2c-0.2,0.4,0.2,1.7,0.6,1.9
		c1.5,1,3.2,1.5,4.9,1.8c0.7,0.1,1.4,0.3,2.1,0.4c0,0.4,0,0.7,0,1c0,0.4,0.1,0.6,0.6,0.6c0.6,0,1.2,0,1.8,0c0.2,0,0.4-0.3,0.4-0.4
		c0.1-0.4,0-0.8,0-1.1c1.5-0.3,3-0.6,4.4-0.9c1-0.2,2-0.8,2.6-1.6c1-1.2,0.2-3.3-1.4-3.7c-2.9-0.8-5.7-1.5-8.6-2.2
		c-0.8-0.2-1.3-0.6-1.3-1.2c-0.1-0.8,0.2-1.2,1.1-1.4c1.5-0.4,3-0.4,4.5,0.2c0.4,0.2,0.8,0.4,0.9,0.9c0,0.4,0.2,0.5,0.6,0.5
		c1.3,0,2.7,0,4,0c0.6,0,0.8-0.2,0.6-0.7c-0.5-1.2-1.3-2-2.6-2.3c-1.4-0.3-2.8-0.6-4.3-1C-1827.7,330.5-1827.7,329.9-1827.7,329.3z"
		/>
	<path class="st1" d="M-1898.7,342.6c9.9,10.6,21.9,15.3,36.4,14.1c-0.5,3.2-0.5,6.3,0,9.5c-0.7,0.1-1.4,0.2-2.1,0.2
		c-3.5,0.2-7,0-10.4-0.6c-2.8-0.5-5.7-1-8.4-2c-2.3-0.8-4.6-1.6-6.7-2.9c-1.3-0.8-2.6-1.5-4-2.2c-2.8-1.5-5.3-3.6-7.7-5.7
		c-1.5-1.3-2.8-2.8-4.1-4.2c-0.3-0.3-0.6-0.4-1-0.1c-0.5,0.4-1,0.8-1.5,1.2c-1.5,1.1-3,1.5-4.8,0.7c-1.7-0.7-2.1-2.2-2.3-3.7
		c-0.4-2.5-0.7-5-1-7.6c-0.3-2.4-0.6-4.8-0.7-7.2c-0.2-3.3,2.7-5.2,5.9-4c1.3,0.5,2.4,1.1,3.7,1.7c0.9,0.4,1.9,0.8,2.9,1.2
		c2.3,1,4.5,2,6.8,3c0.4,0.2,0.9,0.2,1.2,0.5c2.2,1.7,2.5,4.8,0.2,6.7C-1897.2,341.5-1897.9,342-1898.7,342.6z"/>
	<path class="st0" d="M-1855.5,348.2c0.4,0.6,0.8,1.2,1.4,1.6c1.5,1.2,3.1,2.4,4.9,3.2c0.9,0.4,1.8,1,2.8,1.3
		c1.9,0.6,3.7,1.2,5.7,1.6c3.9,0.8,7.8,1.2,11.8,1.2c3.6,0,7.2-0.4,10.7-1.2c1.6-0.4,3.2-0.9,4.7-1.5c1.1-0.4,2.2-0.8,3.3-1.3
		c1.9-0.8,3.5-2,5.1-3.3c0.5-0.4,0.9-1,1.4-1.5c0,0,0.1,0.1,0.1,0.1c0,0,0.1,0,0.1,0.1c0,2.1,0,4.3-0.1,6.4c0,1.3-0.8,2.4-1.7,3.3
		c-0.7,0.8-1.5,1.5-2.4,2.1c-0.9,0.6-1.8,1.1-2.8,1.5c-2.1,0.9-4.2,1.7-6.4,2.4c-1.5,0.5-3,0.7-4.5,0.9c-4.9,0.9-9.7,0.8-14.6,0.1
		c-2.1-0.3-4.2-0.7-6.3-1.2c-1.3-0.3-2.5-0.8-3.7-1.2c-1.4-0.5-2.8-1.2-4.2-1.7c-1.6-0.6-2.8-1.7-4-2.9c-0.9-0.9-1.4-2.1-1.5-3.4
		c-0.2-2.1-0.2-4.3-0.2-6.4C-1855.8,348.4-1855.7,348.3-1855.5,348.2z"/>
	<path class="st0" d="M-1855.6,362.8c0.4,0.5,0.8,1,1.3,1.4c1.5,1.2,3,2.4,4.8,3.2c1,0.4,1.9,1.1,2.9,1.4c1.9,0.6,3.9,1.2,5.9,1.7
		c3,0.7,6.1,1,9.3,1.2c2.8,0.1,5.6,0,8.4-0.4c1.6-0.2,3.1-0.4,4.7-0.7c1.6-0.3,3.1-0.8,4.6-1.3c1-0.3,2-0.7,3-1.2
		c2.5-1.2,4.8-2.7,6.8-4.7c0.1-0.1,0.2-0.2,0.5-0.4c0,2.1,0,4.2,0,6.2c0,1.4-0.7,2.6-1.5,3.6c-1.1,1.2-2.4,2.2-3.8,3
		c-2.5,1.4-5.2,2.4-8,3.3c-1.5,0.5-3.2,0.7-4.8,0.9c-4.3,0.7-8.6,0.8-12.9,0.2c-2.6-0.4-5.2-0.9-7.8-1.4c-1.5-0.3-2.9-0.9-4.3-1.5
		c-1.3-0.5-2.5-1-3.7-1.5c-1.7-0.7-3.1-1.9-4.2-3.3c-0.8-1-1.3-2.2-1.3-3.5c-0.1-2,0-3.9,0-5.9
		C-1855.7,362.9-1855.7,362.8-1855.6,362.8z"/>
	<path class="st0" d="M-1888.3,306.3c0.2-1.1,0.5-2.4,1.8-3c1.1-0.6,2.4-0.7,3.7-0.2c1.5,0.6,3,1.1,4.5,1.7c1.8,0.7,3.6,1.4,5.4,2.1
		c1.1,0.4,2.2,0.7,3.3,1.2c0.8,0.3,1.5,0.5,2.3,0.3c0.3-0.1,0.6-0.1,0.9,0c0.7,0.2,1.2,0.1,1.9-0.3c2.5-1.3,5.1-2.5,7.6-3.7
		c2.5-1.2,5-2.4,7.6-3.7c0.9-0.4,1.8-0.9,2.7-1.4c1-0.5,2-0.9,3-1.4c2.1-0.9,4.8,0.8,5.2,2.9c0.4,2-0.4,3.7-2.3,4.6
		c-1,0.5-1.8,1.1-2.7,1.6c-1.2,0.7-2.4,1.4-3.5,2c-1.3,0.7-2.6,1.5-3.9,2.2c-2.3,1.3-4.7,2.6-7,3.9c-0.5,0.3-1.1,0.6-1.7,0.9
		c-0.8,0.4-1.5,1-2,1.8c-1.4,2.4-4.6,3.5-6.9,2.8c-2-0.6-3.4-1.8-4.4-3.7c-0.1-0.3-0.5-0.5-0.8-0.7c-1.1-0.6-2.2-1.1-3.3-1.6
		c-1.3-0.6-2.7-1.3-4-2c-0.7-0.3-1.3-0.7-2-1.1c-1.1-0.5-2.2-1-3.3-1.6C-1887.7,309.3-1888.2,308.1-1888.3,306.3z M-1870.7,314.7
		c0,2.1,1.6,3.7,3.6,3.7c2,0,3.8-1.7,3.8-3.6c0-1.7-1.5-3.7-3.7-3.6C-1869.1,311.2-1870.6,312.8-1870.7,314.7z"/>
	<path class="st1" d="M-1815.2,314.4c0-0.3,0-0.7,0-1c-0.2-2.1-0.3-4.2-0.5-6.3c-0.1-1.1-0.3-2.2-0.5-3.2c-0.4-1.7-0.9-3.4-1.5-5.1
		c-0.7-2-1.3-3.9-2.2-5.9c-0.6-1.4-1.4-2.8-2.2-4.1c-1.3-2.3-2.8-4.5-4.5-6.5c-1.7-2-3.4-3.9-5.3-5.7c-1.8-1.8-3.8-3.4-6-4.8
		c-1.7-1-3.3-2.2-5.1-3.1c-2.1-1.1-4.4-2-6.6-2.8c-1.7-0.7-3.5-1.3-5.3-1.7c-2.3-0.5-4.7-0.8-7.1-1.1c-3.6-0.4-7.3-0.4-10.9,0.1
		c-2.5,0.3-5,0.8-7.4,1.4c-1.6,0.4-3.3,0.9-4.8,1.5c-2.4,1-4.7,2.1-6.9,3.4c-1.8,1-3.6,2.1-5.3,3.3c-1.1,0.8-2.2,1.7-3.3,2.6
		c-1.1,1-2.3,2-3.4,3.1c-0.9,0.9-1.8,2-2.6,3c-1,1.2-1.9,2.3-2.8,3.6c-1.1,1.7-2.3,3.3-3.1,5.2c-0.8,1.7-1.7,3.3-2.4,5
		c-0.7,1.6-1.4,3.3-1.7,5c-0.4,2-0.9,4-1.4,6c-0.6,2.8-0.5,5.6-0.6,8.5c-0.1,2.3,2,4.2,3.9,4.5c2.9,0.5,5.4-1.7,5.5-4.5
		c0.1-3.4,0.4-6.8,1.2-10.1c0.5-2.1,1.3-4.2,2-6.3c0.5-1.4,1.2-2.6,1.9-3.9c0.7-1.3,1.4-2.5,2.2-3.7c1.1-1.6,2.4-3,3.7-4.5
		c1-1.2,2.1-2.2,3.2-3.3c0.3-0.3,0.8-0.6,1.1-0.9c0.7-0.6,1.4-1.2,2.1-1.8c1.3-0.9,2.6-1.7,3.9-2.4c1.1-0.6,2.3-1.2,3.5-1.8
		c1.7-0.8,3.4-1.5,5.3-2c2.4-0.6,4.8-1.2,7.3-1.6c3.7-0.5,7.3-0.4,10.9,0.2c2.3,0.4,4.6,0.9,6.9,1.6c1.8,0.5,3.6,1.3,5.3,2.1
		c1.6,0.7,3.1,1.6,4.5,2.6c1.8,1.2,3.5,2.4,5.1,3.8c1.2,1,2.2,2.2,3.3,3.3c0.9,0.9,1.7,1.9,2.5,2.9c1.5,2,2.8,4.1,3.9,6.3
		c0.5,1,0.8,2,1.3,3c1.4,2.9,2.1,6,2.7,9.2c0.6,3.6,0.8,7.2,0.4,10.9c-0.1,0.8,0,0.9,0.8,0.9c2.7,0,5.3,0.7,7.8,1.8
		c0.6,0.2,0.7,0.2,0.7-0.4C-1815.4,318.7-1815.3,316.5-1815.2,314.4C-1815.2,314.4-1815.2,314.4-1815.2,314.4z M-1884.9,271.8
		c0,0,0,0.1,0,0.1C-1884.9,271.9-1884.9,271.8-1884.9,271.8z M-1884.9,272C-1884.9,272-1884.9,272-1884.9,272L-1884.9,272
		C-1884.9,272-1884.9,272-1884.9,272z"/>
</g>
<g>
	<path class="st1" d="M110.6,91.4c0.2,0.1,0.3,0.2,0.4,0.2c3.1,0.3,3.1,0.3,3.1,3.4c0,3.1,0,6.2,0,9.3c0,2.1-0.4,2.5-2.6,2.5
		c-23.4,0-46.8,0-70.2,0c-4.4,0-8.9,0-13.3,0c-1.8,0-2.3-0.5-2.3-2.3c0-1.3,0-2.7,0-4c0-1.6,0.6-2.2,2.3-2.2c3.5,0,7,0,10.5,0
		c0.2,0,0.5,0,0.9-0.1c0-0.5,0-1,0-1.5c0-8.8,0-17.7,0-26.5c0-2.1,0.5-2.5,2.6-2.5c6.9,0,13.8,0,20.7,0c0.5,0,0.9,0,1.5,0
		c0.2-2.2,0.5-4.2,0.7-6.3c0.2-1.7,0.7-2.2,2.4-2.2c3,0,6,0,9,0c1.7,0,2.2,0.5,2.4,2.2c1,9.7,2,19.5,3,29.2c0,0.3,0.1,0.6,0.2,0.9
		c0.7,0,1.4,0,2.1,0c2.8,0,3.1,0.3,3.1,3.2c0,1.2,0,2.3,0,3.5c1.1,0,2.2,0,3.4,0c0-1.3,0-2.6,0-3.9c0-2.4,0.3-2.8,2.7-2.8
		c0.2,0,0.3,0,0.7,0c0-0.5,0-0.9,0-1.4c0-11.9,0-23.9,0-35.8c0-3.3,0-3.3,3.4-3.6c0-0.8,0-1.7,0-2.5c0-2,0.4-2.4,2.4-2.5
		c0.3,0,0.6-0.1,1-0.1c0-1.6,0-3.2,0-4.7c0-0.9,0.3-1.6,1.3-1.9c1.1-0.3,2.1,0.5,2.1,1.8c0,1.6,0,3.1,0,4.8c1.2,0.4,2.9-0.4,3.3,1.3
		c0.3,1.2,0.2,2.5,0.2,3.7c0.1,0,0.2,0.1,0.3,0.1c2.9,0.2,3,0.3,3,3.1c0,12,0,24.1,0,36.1C110.6,90.5,110.6,91,110.6,91.4z
		 M42.7,91.5c6.3,0,12.5,0,18.8,0c0.7-6.8,1.4-13.5,2.1-20.2c-7,0-14,0-21,0C42.7,78.1,42.7,84.8,42.7,91.5z M78.2,91.5
		c-1-9.6-2-19.2-3-28.7c-2.4,0-4.8,0-7.2,0c-1,9.6-2,19.2-3,28.7C69.5,91.5,73.8,91.5,78.2,91.5z M29.2,103.4c27.2,0,54.3,0,81.4,0
		c0-0.6,0-1,0-1.5c-27.2,0-54.3,0-81.4,0C29.2,102.4,29.2,102.9,29.2,103.4z M42.7,98.3c13.7,0,27.2,0,40.7,0c0-1.1,0-2.2,0-3.3
		c-0.4,0-0.8,0-1.1,0c-12.8,0-25.5,0-38.3,0c-0.2,0-0.5-0.1-0.6,0c-0.3,0.2-0.6,0.4-0.7,0.6C42.6,96.5,42.7,97.4,42.7,98.3z
		 M102.2,63.8c1.6-1.7,3.2-3.2,4.7-4.8c0.2-0.2,0.3-0.4,0.3-0.6c0-1.3,0-2.6,0-3.9c-3.5,0-6.8,0-10.2,0c0,1.3,0,2.5,0,3.7
		c0,0.3,0.1,0.7,0.3,0.9C98.9,60.5,100.5,62.1,102.2,63.8z M97.1,91.5c3.5,0,6.8,0,10.2,0c0-1.2,0-2.3,0-3.4c0-0.4,0-0.9-0.3-1.1
		c-1.6-1.6-3.2-3.2-4.8-4.9c-1.6,1.7-3.2,3.2-4.7,4.8c-0.2,0.2-0.3,0.5-0.3,0.8C97.1,88.9,97.1,90.2,97.1,91.5z M93.7,98.3
		c5.7,0,11.2,0,16.8,0c0-1.1,0-2.2,0-3.2c-5.7,0-11.2,0-16.8,0C93.7,96.2,93.7,97.2,93.7,98.3z M106.3,72.9
		c-1.4-1.4-2.8-2.8-4.1-4.2c-1.4,1.4-2.8,2.8-4.2,4.2c1.4,1.3,2.8,2.7,4.2,4.1C103.5,75.7,104.9,74.3,106.3,72.9z M107.2,68.6
		c0-1.7,0-3.3,0-4.7c-0.8,0.8-1.6,1.5-2.3,2.2C105.6,66.9,106.3,67.7,107.2,68.6z M99.5,66.3c-0.8-0.9-1.6-1.7-2.3-2.5
		c0,1.5,0,3.1,0,4.6C98.1,67.7,98.9,66.9,99.5,66.3z M107.2,82.3c0-1.8,0-3.3,0-4.9c-0.9,0.9-1.7,1.7-2.3,2.3
		C105.6,80.5,106.3,81.3,107.2,82.3z M97.2,77.2c0,1.7,0,3.3,0,4.7c0.8-0.7,1.6-1.4,2.5-2.2C98.8,78.8,98.1,78.1,97.2,77.2z
		 M100.5,50.7c1.1,0,2.2,0,3.3,0c0-0.6,0-1.1-0.1-1.5c-1.1,0-2.2,0-3.3,0C100.5,49.8,100.5,50.2,100.5,50.7z"/>
	<path class="st0" d="M15.5,35.6c0-3.9,0-7.7,0-11.6c0-2.5-1.4-3.8-3.9-3.8c-1,0-1.9,0-2.9,0c-1.1,0-1.8-0.7-1.7-1.7
		c0.1-1,0.7-1.6,1.7-1.6c1,0,2.1,0,3.1,0c4.2,0.1,7.1,2.9,7.1,7.1c0,7.6,0,15.2,0,22.8c0,0.8,0.2,1.8,0.6,2.5
		c0.7,1.3,1.9,1.6,3.3,1.6c5.9,0,11.8,0,17.7,0c4.5,0,7.5,2.8,7.3,7.4c-0.1,3.5,1.9,4.8,4.6,4.5c0.8-0.1,1.6,0,2.4,0
		c1,0.1,1.5,0.7,1.5,1.6c0,0.9-0.5,1.6-1.5,1.7c-1.7,0-3.4,0.1-5.1-0.1c-3-0.5-5.2-3.3-5.3-6.5c-0.2-4.6-0.8-5.2-5.4-5.2
		c-5.3,0-10.7,0-16,0c-4.6,0-7.5-2.8-7.5-7.4C15.5,43.1,15.5,39.4,15.5,35.6z"/>
	<path class="st0" d="M68.6,15.2c5.3,0,10.6,0,15.9,0c4.7,0,7.4,2.7,7.4,7.4c0,5.3,0,10.5,0,15.8c0,4.6-2.8,7.3-7.4,7.4
		c-1.5,0-2.9,0-4.4,0c-2.2,0.1-3.5,1.4-3.5,3.6c0,0.5,0,1,0,1.5c-0.1,1-0.7,1.6-1.7,1.6c-1,0-1.5-0.6-1.7-1.5
		c-0.8-4.7,2.4-8.6,7.2-8.6c1.5,0,2.9,0,4.4,0c2.2,0,3.7-1.3,3.7-3.5c0.1-5.6,0.1-11.2,0-16.8c0-2.3-1.5-3.5-3.9-3.5
		c-7.2,0-14.4,0-21.7,0c-3.8,0-7.6,0-11.4,0c-1.4,0-2.1-0.7-2-1.8c0.1-1,0.7-1.5,2.1-1.5c4.7,0,9.4,0,14.1,0
		C66.7,15.2,67.6,15.2,68.6,15.2z"/>
	<path class="st0" d="M37.6,42.3c3.6,0,7.3,0,10.9,0c4.5,0,7.6,3.2,7.7,7.7c0,0.8,0,1.7,0,2.5c0.1,1.8,1.1,3,2.9,3.3
		c0.2,0,0.5,0.1,0.7,0.1c1,0.2,1.5,0.9,1.4,1.9c-0.1,1-0.8,1.4-1.7,1.4c-3.5,0.1-6.5-2.9-6.7-6.6c0-0.9,0-1.7,0-2.6
		c0-2.6-1.6-4.3-4.3-4.3c-3.3-0.1-6.5,0-9.8,0c-4.1,0-8.3,0-12.4,0c-0.5,0-1.2,0-1.5-0.3c-0.4-0.4-0.8-1.2-0.7-1.8
		c0.1-0.9,0.8-1.3,1.7-1.3C29.8,42.3,33.7,42.3,37.6,42.3z"/>
	<path class="st1" d="M77.3,21.9c1.2,0,2.3,0,3.5,0c2.6,0,4.3,1.8,4.4,4.4c0,1.6,0,3.1,0,4.7c0,2.6-1.7,4.3-4.2,4.5
		c-0.8,0.1-1.7,0-2.5,0c-1.7,0-1.8,0.1-1.8,1.7c0,0.5,0,1.1,0,1.6c-0.1,1.1-0.8,1.8-1.8,1.7c-1-0.1-1.6-0.7-1.6-1.7
		c-0.1-0.9-0.1-1.9,0-2.9c0.2-2.3,2-3.8,4.2-3.9c1,0,1.9,0,2.9,0c0.9,0,1.4-0.3,1.4-1.3c0-1.4,0-2.8,0-4.2c0-0.9-0.4-1.3-1.3-1.3
		c-2.1,0-4.1,0-6.2,0c-0.4,0-0.8,0-1.1,0c-1-0.2-1.6-0.7-1.6-1.8c0.1-1,0.7-1.6,1.7-1.6C74.6,21.9,76,21.9,77.3,21.9z"/>
	<path class="st1" d="M53,35.5c1.5,0,2.9,0,4.4,0c1.4,0,2.2,0.6,2.2,1.6c0,1.1-0.8,1.7-2.2,1.7c-1.9,0-3.9,0-5.8,0
		c-1.5,0-2-0.5-2.1-2c0-0.9,0-1.7,0-2.6c0.1-2.2,1.7-3.8,3.9-3.9c0.7,0,1.3,0.1,2,0c0.3-0.1,0.6-0.5,0.9-0.8
		c-0.3-0.3-0.6-0.8-0.9-0.8c-1.3-0.1-2.6,0-3.9,0c-1.3,0-2-0.6-2-1.7c0-1,0.7-1.6,1.9-1.6c1.5,0,2.9,0,4.4,0c2.3,0.1,3.8,1.6,3.9,4
		c0.1,2.5-1.3,4.3-3.7,4.5c-0.6,0.1-1.2,0-1.9,0C52.8,33.9,52.7,34,53,35.5z"/>
	<path class="st1" d="M37.6,32c0-0.9,0-1.7,0-2.6c0.1-2.2,1.8-3.9,4-4c0.6,0,1.2,0,1.9,0c2.4,0.1,4.2,1.8,4.3,4.2
		c0.1,1.7,0.1,3.4,0,5.1c-0.1,2.5-1.9,4.2-4.3,4.2c-0.8,0-1.7,0.1-2.5-0.1c-1.9-0.3-3.3-2-3.4-3.9C37.6,33.9,37.6,33,37.6,32z
		 M41,32C41,32,41,32,41,32c0,0.8,0,1.6,0,2.4c0,1.2,1,1.1,1.8,1.1c0.9,0,1.6-0.1,1.6-1.2c0-1.4,0-2.8,0-4.2c0-1-0.5-1.4-1.4-1.4
		c-1.7,0-2,0.2-2,1.9C41,31.1,41,31.6,41,32z"/>
	<path class="st1" d="M27.4,32c0-0.8,0-1.7,0-2.5c0.1-2.2,1.9-4,4.1-4.1c0.9-0.1,1.7,0,2.6,0c1.1,0,1.8,0.7,1.7,1.7
		c-0.1,1-0.7,1.6-1.7,1.6c0,0-0.1,0-0.1,0c-3.9-0.2-3.2,0.5-3.2,3.5c0,2.8-0.7,3.5,3.1,3.4c1.2,0,1.9,0.7,1.9,1.7
		c0,1-0.7,1.6-1.9,1.7c-0.7,0-1.4,0-2.1,0c-2.6-0.1-4.4-1.9-4.5-4.5C27.4,33.6,27.4,32.8,27.4,32C27.4,32,27.4,32,27.4,32z"/>
	<path class="st1" d="M64.8,32.9c0-2.4,0-4.7,0-7.1c0-1.4,0.6-2.1,1.7-2.2c1.1,0,1.7,0.7,1.7,2.1c0,4.8,0,9.6,0,14.4
		c0,1.3-0.7,2.1-1.7,2.1c-1,0-1.7-0.8-1.7-2.2C64.8,37.7,64.8,35.3,64.8,32.9z"/>
	<path class="st0" d="M108.5,22.4c1.5,1.8,1.7,2.6,0.9,3.4c-0.8,0.8-1.6,0.6-3.4-0.8c-1.9,1.4-2.6,1.6-3.4,0.8
		c-0.8-0.8-0.6-1.5,0.8-3.4c-1.5-1.9-1.6-2.6-0.8-3.4c0.8-0.8,1.5-0.6,3.4,0.8c1.9-1.5,2.6-1.6,3.4-0.8
		C110.2,19.9,110,20.8,108.5,22.4z"/>
	<path class="st0" d="M41,18.5c-1.1,0-2.2,0-3.3,0c-1.1,0-1.8-0.7-1.8-1.7c0-0.9,0.7-1.6,1.8-1.7c2.2,0,4.5,0,6.7,0
		c1,0,1.6,0.6,1.7,1.6c0.1,0.9-0.6,1.7-1.7,1.7C43.2,18.5,42.1,18.5,41,18.5z"/>
	<path class="st1" d="M68.2,50c0,0.8,0,1.7,0,2.5c-0.1,1.1-0.6,1.8-1.7,1.7c-1.1,0-1.7-0.7-1.7-1.8c0-1.6,0-3.2,0-4.9
		c0-1.1,0.5-1.8,1.7-1.8c1.1,0,1.7,0.7,1.7,1.7C68.2,48.3,68.2,49.1,68.2,50z"/>
	<path class="st0" d="M86.8,76.3c-0.9,0-1.6-0.8-1.6-1.7c0-1,0.8-1.7,1.8-1.6c0.9,0.1,1.6,0.9,1.6,1.8
		C88.5,75.6,87.7,76.3,86.8,76.3z"/>
	<path class="st1" d="M55,83.1c0,0-0.4,0-0.8-0.1c-0.9-0.2-1.4-0.8-1.4-1.7c0-0.9,0.5-1.5,1.4-1.6c0.6-0.1,1.2-0.1,1.7,0
		c1.2,0,1.9,0.7,1.9,1.7c0,1-0.7,1.7-1.9,1.7C55.8,83.1,55.6,83.1,55,83.1z"/>
	<path class="st1" d="M48.6,79.7c0.4,0,0.9-0.1,1.2,0.1c0.5,0.4,1.1,1,1.3,1.6c0.2,0.9-0.4,1.5-1.3,1.7c-0.6,0.1-1.3,0.1-2,0.1
		c-1-0.1-1.7-0.6-1.7-1.7c0-1.1,0.7-1.6,1.8-1.7C48.1,79.7,48.4,79.7,48.6,79.7C48.6,79.7,48.6,79.7,48.6,79.7z"/>
	<path class="st1" d="M48.6,78c-0.4,0-0.7,0.1-1.1,0c-0.9-0.2-1.4-0.7-1.4-1.6c0-0.9,0.5-1.5,1.4-1.6c0.6-0.1,1.2-0.1,1.8-0.1
		c1.2,0.1,1.9,0.7,1.8,1.7c-0.1,1.1-0.7,1.6-1.8,1.6C49.1,78,48.8,78,48.6,78C48.6,78,48.6,78,48.6,78z"/>
	<path class="st1" d="M48.6,88.1c-0.4,0-0.8,0.1-1.1,0c-0.9-0.2-1.4-0.7-1.4-1.6c0-0.9,0.5-1.5,1.4-1.6c0.6-0.1,1.2-0.1,1.8,0
		c1.2,0,1.9,0.7,1.8,1.7c-0.1,1.1-0.7,1.6-1.8,1.6C49.1,88.2,48.8,88.2,48.6,88.1C48.6,88.2,48.6,88.2,48.6,88.1z"/>
	<path class="st1" d="M55.3,88.2c-0.3,0-0.7,0-1,0c-1-0.2-1.4-0.8-1.4-1.7c0-1.1,0.8-1.6,2.3-1.6c1.9,0,2.7,0.4,2.7,1.6
		c0,0.9-0.5,1.6-1.4,1.7C56.1,88.2,55.7,88.2,55.3,88.2C55.3,88.2,55.3,88.2,55.3,88.2z"/>
	<path class="st1" d="M55.5,74.6c0.4,0,0.7,0,1.1,0.1c0.9,0.2,1.4,0.8,1.4,1.7c0,0.9-0.5,1.5-1.4,1.6c-0.6,0.1-1.2,0-1.9,0
		c-1.1,0-1.7-0.6-1.8-1.6c-0.1-0.9,0.7-1.6,1.7-1.7C54.9,74.6,55.2,74.6,55.5,74.6C55.5,74.6,55.5,74.6,55.5,74.6z"/>
</g>
</svg>
