<?xml version="1.0" encoding="utf-8"?>
<!-- Generator: Adobe Illustrator 26.5.0, SVG Export Plug-In . SVG Version: 6.00 Build 0)  -->
<svg version="1.1" id="Capa_1" xmlns="http://www.w3.org/2000/svg" xmlns:xlink="http://www.w3.org/1999/xlink" x="0px" y="0px"
	 viewBox="0 0 122.2 122.2" style="enable-background:new 0 0 122.2 122.2;" xml:space="preserve">
<style type="text/css">
	.st0{fill:#E8A523;}
	.st1{fill:#0B3947;}
</style>
<g>
	<path class="st0" d="M-1829.3,324.9c2.1,0.2,4.6,0.3,7,0.6c2.9,0.4,5.7,1.1,8.5,2.1c1.5,0.6,2.9,1.4,4.4,2.1
		c1.3,0.7,2.3,1.6,3.2,2.5c1.9,2,3,4.4,2.1,7.2c-0.5,1.4-1.3,2.7-2.4,3.7c-1.2,1-2.4,2-3.8,2.8c-1.8,0.9-3.7,1.8-5.6,2.3
		c-3.3,0.9-6.7,1.7-10.1,1.9c-3.4,0.2-6.9,0.2-10.3-0.3c-2.2-0.4-4.3-1-6.5-1.4c-1.5-0.3-2.9-0.9-4.3-1.5c-0.8-0.4-1.6-0.7-2.3-1.1
		c-1-0.6-2.1-1.2-2.9-2c-1.9-1.7-3.4-3.6-3.3-6.3c0-2.2,1-4,2.6-5.4c0.8-0.7,1.5-1.4,2.4-2c1-0.7,2.1-1.3,3.3-1.8
		c2.4-0.9,4.7-1.7,7.2-2.3c1.7-0.4,3.6-0.6,5.4-0.8C-1833.1,325.1-1831.3,325-1829.3,324.9z M-1827.7,329.3c-0.6,0-1.1,0-1.5,0
		c-1.2,0-1.2,0-1.2,1.2c0,0.4-0.1,0.5-0.5,0.6c-0.9,0.1-1.7,0.2-2.5,0.4c-1.3,0.3-2.6,0.6-3.6,1.7c-1,1.1-0.9,2.1,0.1,3.1
		c1.1,1.1,2.6,1.4,4,1.7c2,0.5,4.1,0.9,6.1,1.5c1.1,0.3,1.4,1.4,0.7,2c-0.3,0.3-0.7,0.5-1.1,0.5c-1.4,0.1-2.8,0.1-4.2,0
		c-0.9-0.1-1.6-0.6-1.9-1.5c-0.1-0.2-0.3-0.4-0.4-0.4c-1.4,0-2.8,0-4.3,0c-0.1,0-0.3,0.1-0.3,0.2c-0.2,0.4,0.2,1.7,0.6,1.9
		c1.5,1,3.2,1.5,4.9,1.8c0.7,0.1,1.4,0.3,2.1,0.4c0,0.4,0,0.7,0,1c0,0.4,0.1,0.6,0.6,0.6c0.6,0,1.2,0,1.8,0c0.2,0,0.4-0.3,0.4-0.4
		c0.1-0.4,0-0.8,0-1.1c1.5-0.3,3-0.6,4.4-0.9c1-0.2,2-0.8,2.6-1.6c1-1.2,0.2-3.3-1.4-3.7c-2.9-0.8-5.7-1.5-8.6-2.2
		c-0.8-0.2-1.3-0.6-1.3-1.2c-0.1-0.8,0.2-1.2,1.1-1.4c1.5-0.4,3-0.4,4.5,0.2c0.4,0.2,0.8,0.4,0.9,0.9c0,0.4,0.2,0.5,0.6,0.5
		c1.3,0,2.7,0,4,0c0.6,0,0.8-0.2,0.6-0.7c-0.5-1.2-1.3-2-2.6-2.3c-1.4-0.3-2.8-0.6-4.3-1C-1827.7,330.5-1827.7,329.9-1827.7,329.3z"
		/>
	<path class="st1" d="M-1898.7,342.6c9.9,10.6,21.9,15.3,36.4,14.1c-0.5,3.2-0.5,6.3,0,9.5c-0.7,0.1-1.4,0.2-2.1,0.2
		c-3.5,0.2-7,0-10.4-0.6c-2.8-0.5-5.7-1-8.4-2c-2.3-0.8-4.6-1.6-6.7-2.9c-1.3-0.8-2.6-1.5-4-2.2c-2.8-1.5-5.3-3.6-7.7-5.7
		c-1.5-1.3-2.8-2.8-4.1-4.2c-0.3-0.3-0.6-0.4-1-0.1c-0.5,0.4-1,0.8-1.5,1.2c-1.5,1.1-3,1.5-4.8,0.7c-1.7-0.7-2.1-2.2-2.3-3.7
		c-0.4-2.5-0.7-5-1-7.6c-0.3-2.4-0.6-4.8-0.7-7.2c-0.2-3.3,2.7-5.2,5.9-4c1.3,0.5,2.4,1.1,3.7,1.7c0.9,0.4,1.9,0.8,2.9,1.2
		c2.3,1,4.5,2,6.8,3c0.4,0.2,0.9,0.2,1.2,0.5c2.2,1.7,2.5,4.8,0.2,6.7C-1897.2,341.5-1897.9,342-1898.7,342.6z"/>
	<path class="st0" d="M-1855.5,348.2c0.4,0.6,0.8,1.2,1.4,1.6c1.5,1.2,3.1,2.4,4.9,3.2c0.9,0.4,1.8,1,2.8,1.3
		c1.9,0.6,3.7,1.2,5.7,1.6c3.9,0.8,7.8,1.2,11.8,1.2c3.6,0,7.2-0.4,10.7-1.2c1.6-0.4,3.2-0.9,4.7-1.5c1.1-0.4,2.2-0.8,3.3-1.3
		c1.9-0.8,3.5-2,5.1-3.3c0.5-0.4,0.9-1,1.4-1.5c0,0,0.1,0.1,0.1,0.1c0,0,0.1,0,0.1,0.1c0,2.1,0,4.3-0.1,6.4c0,1.3-0.8,2.4-1.7,3.3
		c-0.7,0.8-1.5,1.5-2.4,2.1c-0.9,0.6-1.8,1.1-2.8,1.5c-2.1,0.9-4.2,1.7-6.4,2.4c-1.5,0.5-3,0.7-4.5,0.9c-4.9,0.9-9.7,0.8-14.6,0.1
		c-2.1-0.3-4.2-0.7-6.3-1.2c-1.3-0.3-2.5-0.8-3.7-1.2c-1.4-0.5-2.8-1.2-4.2-1.7c-1.6-0.6-2.8-1.7-4-2.9c-0.9-0.9-1.4-2.1-1.5-3.4
		c-0.2-2.1-0.2-4.3-0.2-6.4C-1855.8,348.4-1855.7,348.3-1855.5,348.2z"/>
	<path class="st0" d="M-1855.6,362.8c0.4,0.5,0.8,1,1.3,1.4c1.5,1.2,3,2.4,4.8,3.2c1,0.4,1.9,1.1,2.9,1.4c1.9,0.6,3.9,1.2,5.9,1.7
		c3,0.7,6.1,1,9.3,1.2c2.8,0.1,5.6,0,8.4-0.4c1.6-0.2,3.1-0.4,4.7-0.7c1.6-0.3,3.1-0.8,4.6-1.3c1-0.3,2-0.7,3-1.2
		c2.5-1.2,4.8-2.7,6.8-4.7c0.1-0.1,0.2-0.2,0.5-0.4c0,2.1,0,4.2,0,6.2c0,1.4-0.7,2.6-1.5,3.6c-1.1,1.2-2.4,2.2-3.8,3
		c-2.5,1.4-5.2,2.4-8,3.3c-1.5,0.5-3.2,0.7-4.8,0.9c-4.3,0.7-8.6,0.8-12.9,0.2c-2.6-0.4-5.2-0.9-7.8-1.4c-1.5-0.3-2.9-0.9-4.3-1.5
		c-1.3-0.5-2.5-1-3.7-1.5c-1.7-0.7-3.1-1.9-4.2-3.3c-0.8-1-1.3-2.2-1.3-3.5c-0.1-2,0-3.9,0-5.9
		C-1855.7,362.9-1855.7,362.8-1855.6,362.8z"/>
	<path class="st0" d="M-1888.3,306.3c0.2-1.1,0.5-2.4,1.8-3c1.1-0.6,2.4-0.7,3.7-0.2c1.5,0.6,3,1.1,4.5,1.7c1.8,0.7,3.6,1.4,5.4,2.1
		c1.1,0.4,2.2,0.7,3.3,1.2c0.8,0.3,1.5,0.5,2.3,0.3c0.3-0.1,0.6-0.1,0.9,0c0.7,0.2,1.2,0.1,1.9-0.3c2.5-1.3,5.1-2.5,7.6-3.7
		c2.5-1.2,5-2.4,7.6-3.7c0.9-0.4,1.8-0.9,2.7-1.4c1-0.5,2-0.9,3-1.4c2.1-0.9,4.8,0.8,5.2,2.9c0.4,2-0.4,3.7-2.3,4.6
		c-1,0.5-1.8,1.1-2.7,1.6c-1.2,0.7-2.4,1.4-3.5,2c-1.3,0.7-2.6,1.5-3.9,2.2c-2.3,1.3-4.7,2.6-7,3.9c-0.5,0.3-1.1,0.6-1.7,0.9
		c-0.8,0.4-1.5,1-2,1.8c-1.4,2.4-4.6,3.5-6.9,2.8c-2-0.6-3.4-1.8-4.4-3.7c-0.1-0.3-0.5-0.5-0.8-0.7c-1.1-0.6-2.2-1.1-3.3-1.6
		c-1.3-0.6-2.7-1.3-4-2c-0.7-0.3-1.3-0.7-2-1.1c-1.1-0.5-2.2-1-3.3-1.6C-1887.7,309.3-1888.2,308.1-1888.3,306.3z M-1870.7,314.7
		c0,2.1,1.6,3.7,3.6,3.7c2,0,3.8-1.7,3.8-3.6c0-1.7-1.5-3.7-3.7-3.6C-1869.1,311.2-1870.6,312.8-1870.7,314.7z"/>
	<path class="st1" d="M-1815.2,314.4c0-0.3,0-0.7,0-1c-0.2-2.1-0.3-4.2-0.5-6.3c-0.1-1.1-0.3-2.2-0.5-3.2c-0.4-1.7-0.9-3.4-1.5-5.1
		c-0.7-2-1.3-3.9-2.2-5.9c-0.6-1.4-1.4-2.8-2.2-4.1c-1.3-2.3-2.8-4.5-4.5-6.5c-1.7-2-3.4-3.9-5.3-5.7c-1.8-1.8-3.8-3.4-6-4.8
		c-1.7-1-3.3-2.2-5.1-3.1c-2.1-1.1-4.4-2-6.6-2.8c-1.7-0.7-3.5-1.3-5.3-1.7c-2.3-0.5-4.7-0.8-7.1-1.1c-3.6-0.4-7.3-0.4-10.9,0.1
		c-2.5,0.3-5,0.8-7.4,1.4c-1.6,0.4-3.3,0.9-4.8,1.5c-2.4,1-4.7,2.1-6.9,3.4c-1.8,1-3.6,2.1-5.3,3.3c-1.1,0.8-2.2,1.7-3.3,2.6
		c-1.1,1-2.3,2-3.4,3.1c-0.9,0.9-1.8,2-2.6,3c-1,1.2-1.9,2.3-2.8,3.6c-1.1,1.7-2.3,3.3-3.1,5.2c-0.8,1.7-1.7,3.3-2.4,5
		c-0.7,1.6-1.4,3.3-1.7,5c-0.4,2-0.9,4-1.4,6c-0.6,2.8-0.5,5.6-0.6,8.5c-0.1,2.3,2,4.2,3.9,4.5c2.9,0.5,5.4-1.7,5.5-4.5
		c0.1-3.4,0.4-6.8,1.2-10.1c0.5-2.1,1.3-4.2,2-6.3c0.5-1.4,1.2-2.6,1.9-3.9c0.7-1.3,1.4-2.5,2.2-3.7c1.1-1.6,2.4-3,3.7-4.5
		c1-1.2,2.1-2.2,3.2-3.3c0.3-0.3,0.8-0.6,1.1-0.9c0.7-0.6,1.4-1.2,2.1-1.8c1.3-0.9,2.6-1.7,3.9-2.4c1.1-0.6,2.3-1.2,3.5-1.8
		c1.7-0.8,3.4-1.5,5.3-2c2.4-0.6,4.8-1.2,7.3-1.6c3.7-0.5,7.3-0.4,10.9,0.2c2.3,0.4,4.6,0.9,6.9,1.6c1.8,0.5,3.6,1.3,5.3,2.1
		c1.6,0.7,3.1,1.6,4.5,2.6c1.8,1.2,3.5,2.4,5.1,3.8c1.2,1,2.2,2.2,3.3,3.3c0.9,0.9,1.7,1.9,2.5,2.9c1.5,2,2.8,4.1,3.9,6.3
		c0.5,1,0.8,2,1.3,3c1.4,2.9,2.1,6,2.7,9.2c0.6,3.6,0.8,7.2,0.4,10.9c-0.1,0.8,0,0.9,0.8,0.9c2.7,0,5.3,0.7,7.8,1.8
		c0.6,0.2,0.7,0.2,0.7-0.4C-1815.4,318.7-1815.3,316.5-1815.2,314.4C-1815.2,314.4-1815.2,314.4-1815.2,314.4z M-1884.9,271.8
		c0,0,0,0.1,0,0.1C-1884.9,271.9-1884.9,271.8-1884.9,271.8z M-1884.9,272C-1884.9,272-1884.9,272-1884.9,272L-1884.9,272
		C-1884.9,272-1884.9,272-1884.9,272z"/>
</g>
<g>
	<path class="st1" d="M116,96c-1,2.4-2.8,3.3-5.3,3.1c-2.5-0.1-5.1,0-7.6,0c-0.4,0-0.8,0-1.2,0c0.1,1.7,0.9,2.5,2.4,2.5
		c0.4,0,0.8,0,1.2,0c0.9,0.1,1.5,0.8,1.5,1.7c0,0.9-0.6,1.5-1.6,1.5c-2.5,0-5.1,0-7.6,0c-3.1,0-6.3,0-9.4,0c-1.3,0-2.1-0.6-2.1-1.6
		c0-1,0.8-1.6,2.1-1.6c2.2,0,2.6-0.4,3.1-2.4c-0.3-0.1-0.7-0.1-1-0.2c-0.8-0.2-1.2-0.8-1.2-1.6c0-0.8,0.5-1.4,1.3-1.5
		c0.4-0.1,0.9-0.1,1.3-0.1c6.4,0,12.9,0,19.3,0c1.6,0,1.7-0.1,1.7-1.7c0-0.8,0-1.6,0-2.5c-10.8,0-21.4,0-32.2,0c0,1.2-0.1,2.3,0,3.4
		c0,0.3,0.7,0.7,1,0.8c0.9,0.1,1.8,0,2.7,0.1c1.1,0,1.7,0.6,1.7,1.5c0,1-0.6,1.6-1.7,1.6c-1.1,0-2.2,0.1-3.3,0
		c-2-0.2-3.5-1.7-3.7-3.7c0-0.4,0-0.9,0-1.3c0-6.9,0-13.7,0-20.6c0-3.4,1.5-4.9,4.9-4.9c9.5,0,19.1,0,28.6,0c2.5,0,4.3,0.8,5.2,3.2
		C116,79.8,116,87.9,116,96z M112.8,88.3c0-0.4,0-0.7,0-1.1c0-4.6,0-9.3,0-13.9c0-1.4-0.2-1.6-1.6-1.6c-9.7,0-19.4,0-29,0
		c-1.4,0-1.6,0.2-1.6,1.6c0,4.6,0,9.3,0,13.9c0,0.3,0.1,0.7,0.1,1C91.4,88.3,102,88.3,112.8,88.3z M99.1,101.5
		c-0.2-0.7-0.3-1.4-0.5-2c-0.1-0.2-0.4-0.4-0.6-0.4c-1,0-2,0-3,0c-0.2,0.9-0.4,1.6-0.7,2.4C95.9,101.5,97.4,101.5,99.1,101.5z"/>
	<path class="st0" d="M59.4,56.6c0-1,0-1.9,0-3c-2,0-4,0-5.9,0c-0.8,0-1.6,0-2.5,0c-2-0.1-3.2-1.4-3.3-3.4c0-0.3,0-0.6,0-1.1
		c-0.9,0-1.6,0-2.4,0c-6.6-0.1-11.9-4.3-13.3-10.6c-1.5-7,3.3-14.2,10.3-15.4c1-0.2,1.4-0.6,1.8-1.5c2.4-6.5,7-10.3,13.8-11
		c7-0.7,12.4,2.2,16,8.2c0.4,0.6,0.7,0.9,1.5,0.9c1,0,2.1,0.1,3.1,0.3c0.9,0.2,1.4,1,1.2,1.8C79.7,22.5,79,23.1,78,23
		c-1.4-0.1-2.8-0.2-4.3-0.1c-1.1,0-1.6-0.6-2-1.5c-1.7-3.7-4.5-6.2-8.4-7.3c-7.4-2.1-14.9,2.5-16.6,10.1c-0.3,1.5-0.7,1.8-2.2,1.9
		c-5.3,0.2-9.3,4.4-9.5,9.7c-0.2,5.1,3.9,9.6,9.1,10.1c1,0.1,2,0.1,3,0.1c0.2,0,0.3,0,0.6-0.1c0-0.2,0.1-0.4,0.1-0.7
		c0.2-1.9,1.3-3.2,3.2-3.2c6.8,0,13.5,0,20.3,0c2,0,3,1.2,3.3,3.9c1-0.1,2,0,2.9-0.2c4.7-1,7.9-3.8,9.2-8.4c1.3-4.5,0-8.4-3.4-11.6
		c-1-0.9-1.1-1.9-0.4-2.6c0.7-0.7,1.6-0.6,2.6,0.2c4.3,3.8,6.1,10.1,4.1,15.5C87.5,44.8,83.2,48.1,77,49c-0.8,0.1-1.6,0.1-2.5,0.2
		c0,0.3-0.1,0.5-0.1,0.8c-0.1,2.5-1.3,3.6-3.8,3.6c-2.6,0-5.2,0-8,0c0,0.9,0,1.6,0,2.4c0,0.2,0.3,0.5,0.6,0.5c0.6,0.1,1.1,0,1.7,0
		c8.5,0,16.9,0,25.4,0c1,0,2.2,0.1,3.1,0.5c1.7,0.7,2.7,2.1,2.8,4c0.1,0.8,0.1,1.6,0,2.5c-0.1,1.1-0.7,1.7-1.7,1.7
		c-0.9,0-1.5-0.7-1.5-1.7c0-0.6,0-1.2,0-1.8c0-1.2-0.5-1.7-1.7-1.9c-0.2,0-0.5,0-0.7,0c-9,0-17.9,0-26.9,0c-0.3,0-0.6,0-1.1,0.1
		c0,1.3,0,2.6,0,3.9c0,0.9-0.5,1.4-1.4,1.5c-0.8,0.1-1.4-0.3-1.7-1c-0.1-0.4-0.1-0.8-0.1-1.2c0-1,0-2.1,0-3.2c-0.5,0-1,0-1.4,0
		c-8.8,0-17.5,0-26.3,0c-0.4,0-0.8,0-1.2,0c-1.2,0.1-1.6,0.7-1.7,1.8c0,0.7,0,1.4,0,2.1c-0.1,0.9-0.6,1.4-1.5,1.4
		c-0.9,0.1-1.6-0.4-1.6-1.3c-0.1-1.3-0.2-2.6,0.1-3.8c0.5-2,2-3.1,4-3.4c0.6-0.1,1.3-0.1,1.9-0.1c8.7,0,17.4,0,26,0
		C58.5,56.6,58.9,56.6,59.4,56.6z M51,50.4c6.8,0,13.4,0,20.2,0c0-1.7,0-3.4,0-5.1c-6.7,0-13.4,0-20.2,0C51,47,51,48.6,51,50.4z"/>
	<path class="st1" d="M44.6,95.2c1.8,0.7,2.2,1.2,2.2,3c0,1.3,0,2.6,0,3.9c0,1.9-0.9,2.7-2.8,2.7c-9.1,0-18.1,0-27.2,0
		c-2.6,0-5.2,0-7.8,0c-1.9,0-2.7-0.9-2.7-2.8c0-1.2,0-2.4,0-3.5c0-2,0.3-2.5,2.2-3.3c0-0.8,0-1.5,0-2.3c0-5.5,0-11.1,0-16.6
		c0-2.6,1.4-4,4-4c1.2,0,2.4,0,3.5,0c1.2,0,1.9,0.6,1.9,1.6c0,1-0.6,1.6-1.9,1.6c-1.2,0-2.4,0-3.5,0c-0.6,0-0.8,0.2-0.8,0.8
		c0,6.2,0,12.4,0,18.6c0,0.1,0.1,0.2,0.1,0.4c9.8,0,19.7,0,29.6,0c0-0.4,0.1-0.7,0.1-1.1c0-5.8,0-11.6,0-17.5c0-1.1-0.3-1.3-1.3-1.3
		c-5.5,0-11,0-16.5,0c-0.4,0-0.9,0.1-1.2-0.1c-0.5-0.4-1.2-0.9-1.2-1.4c0-0.5,0.5-1.2,0.9-1.6c0.3-0.3,0.9-0.2,1.3-0.2
		c5.6,0,11.3,0,16.9,0c2.9,0,4.2,1.3,4.2,4.2C44.6,82.7,44.6,88.9,44.6,95.2z M9.5,101.5c11.4,0,22.7,0,34,0c0-1,0-2,0-2.9
		c-11.4,0-22.7,0-34,0C9.5,99.6,9.5,100.5,9.5,101.5z"/>
	<path class="st1" d="M71.2,88.1c0,4.3,0,8.6,0,12.9c0,2.5-1.3,3.8-3.8,3.8c-4.2,0-8.4,0-12.6,0c-2.5,0-3.8-1.3-3.8-3.7
		c0-8.6,0-17.2,0-25.8c0-2.5,1.3-3.8,3.8-3.8c4.2,0,8.5,0,12.7,0c2.4,0,3.7,1.3,3.7,3.8C71.2,79.5,71.2,83.8,71.2,88.1z M54.3,94.2
		c4.6,0,9.2,0,13.7,0c0-6.5,0-13,0-19.4c-4.6,0-9.1,0-13.7,0C54.3,81.3,54.3,87.7,54.3,94.2z M68,101.5c0-1.4,0-2.7,0-4
		c-4.6,0-9.1,0-13.7,0c0,1.3,0,2.6,0,4C58.9,101.5,63.4,101.5,68,101.5z"/>
	<path class="st0" d="M61,37.9c-1.3,0-2.6,0-3.9,0c-1.2,0-1.9-0.6-1.8-1.6c0-1,0.7-1.6,1.9-1.6c2.6,0,5.2,0,7.8,0
		c1.2,0,1.9,0.6,1.9,1.6c0,1-0.7,1.6-1.9,1.7C63.7,37.9,62.3,37.9,61,37.9z"/>
</g>
</svg>
